<svg width="378" height="98" viewBox="0 0 378 98" fill="none" xmlns="http://www.w3.org/2000/svg">
<path d="M36.8094 37.5928C34.7563 33.7659 30.8199 31.8164 25.0838 31.8164C18.5703 31.8164 13.8334 34.4426 11.6075 36.7952C11.6075 36.2135 11.6075 32.686 11.6075 32.686H0V65.0868H11.9818V47.9275C11.9818 42.7443 16.1457 40.8985 20.0388 40.8985C21.9134 40.8985 26.2673 41.3967 26.2673 45.9954V65.0868H38.2492V47.9247C38.2492 42.7443 42.3497 40.8985 46.1823 40.8985C48.5551 40.8985 52.5375 41.5637 52.5375 45.9954V65.0868H64.5194V43.5333C64.5194 32.9625 54.8268 31.8164 50.6572 31.8164C44.8693 31.8164 40.0921 33.8206 36.8094 37.5928Z" fill="white"/>
<path d="M179.441 22.0171H167.598V65.0866H179.582V49.7904C179.582 42.0559 185.252 40.8983 188.633 40.8983C193.324 40.8983 195.607 42.9198 195.607 47.0808V65.0866H207.592V43.8902C207.592 32.6887 196.166 31.8162 192.664 31.8162C186.525 31.8162 181.682 34.2984 179.582 36.7C179.582 36.0117 179.582 22.0171 179.582 22.0171H179.441Z" fill="white"/>
<path d="M142.38 31.8076C137.873 31.8076 134.225 32.6254 130.093 36.5474C130.093 36.006 130.093 32.6916 130.093 32.6916H118.488V74.9607H130.473C130.473 74.9607 130.473 63.3676 130.473 62.7312C132.751 65.1039 136.779 66.2241 143.134 66.2241C154.307 66.2241 162.416 59.0626 162.416 49.203C162.416 38.4738 154.736 31.8076 142.38 31.8076ZM140.045 58.2967C135.092 58.2967 130.093 55.5381 130.093 49.3844C130.093 43.2279 135.092 40.4722 140.045 40.4722C145.035 40.4722 150.066 43.2279 150.066 49.3844C150.066 55.5381 145.035 58.2967 140.045 58.2967Z" fill="white"/>
<path d="M234.121 31.5542C224.527 31.5542 215.427 32.8788 213.812 42.4792L213.783 42.6462H225.514L225.555 42.5599C227.012 39.0785 229.128 38.7128 233.614 38.7128C240.862 38.7128 241.864 40.3541 241.864 42.1251C241.864 44.2674 241.173 44.7455 237.744 44.9816L225.958 45.7475C221.287 46.0384 211.58 46.6459 211.58 55.6446C211.58 61.8702 217.918 66.2125 226.997 66.2125C230.902 66.2125 238.026 65.6683 242.386 62.1553C242.394 62.6102 242.449 65.2969 242.449 65.2969H253.858L253.861 42.9688C253.861 35.0759 247.767 31.5542 234.121 31.5542ZM242.242 52.2899C242.242 57.2139 236.506 59.7911 230.841 59.7911C226.804 59.7911 224.29 58.2419 224.29 55.754C224.29 53.3294 225.771 52.3187 229.739 52.0135C229.741 52.0135 236.177 51.4807 236.177 51.4807C238.058 51.3224 240.223 51.0834 242.242 50.2944C242.242 50.6255 242.242 52.2899 242.242 52.2899Z" fill="white"/>
<path d="M113.862 50.3836C113.862 38.5918 105.598 31.5542 91.7585 31.5542C77.9452 31.5542 69.0215 38.2117 69.0215 48.5148C69.0215 59.9294 77.0958 66.2125 91.7585 66.2125C102.635 66.2125 109.776 62.6419 112.989 55.5985L113.272 54.9765H100.412L100.279 55.1752C98.6924 57.5192 95.8273 58.7055 91.7585 58.7055C84.5394 58.7055 81.6109 54.5302 81.4093 51.7917C81.7203 51.7917 113.862 51.7917 113.862 51.7917V50.3836ZM81.0609 45.664C81.0868 44.6907 83.0651 38.7675 91.5051 38.7675C99.3461 38.7675 101.802 43.7981 101.823 45.664C101.537 45.664 81.346 45.664 81.0609 45.664Z" fill="white"/>
<path d="M279.936 0.1H314.681C301.739 10.3094 290.069 22.0567 279.936 35.0638V0.1Z" fill="white" stroke="#5D5F6D" stroke-width="0.2"/>
<path d="M355.99 0.1C323.533 17.3476 296.916 44.1779 279.936 76.8198V35.3895C290.147 22.2476 301.928 10.3889 315.004 0.1H355.99Z" fill="white" stroke="#5D5F6D" stroke-width="0.2"/>
<path d="M294.994 97.9H279.936V77.2541C296.947 44.3817 323.731 17.3818 356.417 0.1H377.698V14.7699C340.649 30.8972 310.937 60.7439 294.994 97.9Z" fill="white" stroke="#5D5F6D" stroke-width="0.2"/>
<path d="M377.697 39.8934C353.043 52.8528 332.854 73.157 320.047 97.9H295.21C311.13 60.8541 340.757 31.0917 377.697 14.9881V39.8934Z" fill="white" stroke="#5D5F6D" stroke-width="0.2"/>
<path d="M377.698 66.2426C365.256 74.6153 354.572 85.3937 346.283 97.8997H320.274C333.048 73.266 353.154 53.0456 377.698 40.1192V66.2426Z" fill="white" stroke="#5D5F6D" stroke-width="0.2"/>
<path d="M377.698 66.4838V97.8998H346.522C354.762 85.5 365.361 74.8063 377.698 66.4838Z" fill="white" stroke="#5D5F6D" stroke-width="0.2"/>
</svg>
