<svg width="376" height="87" viewBox="0 0 376 87" fill="none" xmlns="http://www.w3.org/2000/svg">
<path d="M64.7863 83.4794V82.6092C63.6183 82.4435 61.4224 82.4435 61.4224 80.8267C61.4224 79.7488 63.8309 74.1096 64.2444 72.6164H74.1704C75.2706 75.3424 76.2266 78.1242 77.0345 80.9503C77.0345 82.6092 74.7919 82.6092 73.5467 82.6092V83.4794H84.3839V82.6092C82.1412 82.2779 81.6436 81.158 80.7302 78.7945L71.0144 54.082C70.0965 55.3521 68.9579 56.4473 67.6527 57.3157L68.4003 58.5593L59.9296 80.6167C59.7251 81.1682 59.3658 81.6492 58.8947 82.0021C58.4237 82.3551 57.8608 82.565 57.2734 82.6068V83.4771L64.7863 83.4794ZM69.0217 59.7609L73.7126 71.4942H64.7046L69.0217 59.7609ZM105.883 58.06C105.883 55.7269 106.838 55.6545 109.621 55.6545C114.188 55.6545 116.096 58.599 116.096 62.8686C116.096 70.001 112.859 70.4163 107.254 70.4163H105.883V58.06ZM98.6177 55.7269C100.695 55.7269 101.69 55.9345 101.69 58.06V80.2854C101.69 82.3992 100.989 82.6185 98.6995 82.6185V83.4888H109.539V82.6185C107.38 82.6185 105.885 82.4109 105.885 80.2854V71.2842H109.623C114.688 71.2842 120.626 69.378 120.626 63.3235C120.626 57.3951 115.977 54.782 110.581 54.782C106.553 54.782 102.526 54.782 98.6247 54.8636V55.7339L98.6177 55.7269ZM160.27 69.4527C160.27 75.5888 157.032 83.1761 149.89 83.1761C143.746 83.1761 140.259 76.998 140.259 69.826C140.259 59.7492 145.398 55.3606 150.388 55.3606C154.042 55.3676 160.27 59.1822 160.27 69.4643V69.4527ZM150.098 54.4857C148.144 54.4797 146.209 54.8749 144.414 55.6467C142.618 56.4186 141.001 57.5506 139.662 58.9726C138.323 60.3945 137.291 62.0762 136.63 63.9131C135.968 65.75 135.692 67.703 135.818 69.651C135.818 74.7512 138.766 84.0394 149.89 84.0394C151.843 84.1434 153.796 83.8401 155.625 83.1488C157.454 82.4575 159.118 81.3934 160.513 80.0243C161.907 78.6551 163.001 77.0109 163.724 75.1965C164.447 73.382 164.784 71.437 164.713 69.4853C164.82 67.5217 164.518 65.5573 163.827 63.716C163.136 61.8747 162.07 60.1964 160.697 58.7871C159.324 57.3777 157.673 56.2679 155.849 55.5276C154.025 54.7872 152.067 54.4325 150.098 54.4857ZM192.286 80.276C192.286 82.0586 191.373 82.4739 188.508 82.6092V83.4794H200.341V82.6092C197.304 82.4855 196.482 82.0702 196.482 80.276V55.7385H203.256C204.793 55.7385 205.207 56.3615 206.162 57.4791C207.301 59.0011 208.341 60.5939 209.276 62.248L209.858 61.9587L208.321 54.2057C207.154 54.5932 205.938 54.8162 204.709 54.8683H184.035C182.806 54.8162 181.59 54.5932 180.423 54.2057L178.681 61.919L179.22 62.2083C180.507 60.6754 181.337 58.9419 182.584 57.4814C183.54 56.3615 183.955 55.7409 185.49 55.7409H192.298V80.2854L192.286 80.276ZM235.081 83.4701V82.5998C232.591 82.5998 231.593 82.3922 231.593 80.2667V69.5343H246.778V80.2667C246.778 82.3805 245.283 82.5998 243.124 82.5998V83.4701H254.085V82.5998C252.092 82.5998 250.971 82.3922 250.971 80.2667V58.0623C250.971 55.9485 252.466 55.7292 254.169 55.7292V54.859H243.126V55.7292C245.285 55.7292 246.78 55.9369 246.78 58.0623V68.4284H231.596V58.0623C231.596 55.9485 233.091 55.7292 235.539 55.7292V54.859H224.326V55.7292C225.902 55.7292 227.398 55.9369 227.398 58.0623V80.2877C227.398 82.4015 225.902 82.6208 224.202 82.6208V83.4911L235.081 83.4701ZM292.839 83.4701L294.5 76.0484L293.799 75.8408C292.74 77.5792 291.472 79.1808 290.021 80.6097C289.429 81.292 288.685 81.8271 287.849 82.1726C287.014 82.518 286.109 82.6643 285.207 82.5998H280.541C279.004 82.5998 277.677 82.4342 277.677 80.5677V69.5787H280.502C284.529 69.5787 286.356 70.5329 286.769 75.1782H287.433V63.2442H286.769C285.814 67.9291 284.153 68.4261 279.96 68.4681H277.675V55.7385H283.983C285.282 55.6957 286.572 55.9858 287.728 56.5813C288.884 57.1767 289.868 58.0576 290.587 59.1402C291.256 59.977 291.88 60.8493 292.456 61.7533L293.327 61.5457L291.292 54.8683H270.118V55.7385C271.987 55.7385 273.482 55.9462 273.482 58.0717V80.2971C273.482 82.4109 272.237 82.6302 270.244 82.6302V83.5004L292.839 83.4701ZM320.725 83.4701V82.5998C318.732 82.5998 317.237 82.3922 317.237 80.2667V71.0812L318.566 69.7536L329.733 83.4794H336.292V82.6092C335.751 82.6716 335.203 82.6148 334.687 82.4426C334.17 82.2705 333.697 81.9873 333.302 81.6129L321.388 66.6809L328.611 59.0096C329.347 58.0637 330.275 57.2837 331.334 56.7208C332.393 56.1579 333.559 55.8248 334.755 55.7432V54.873H324.958V55.7432C325.871 55.7852 328.03 55.7852 328.03 57.1944C328.03 58.1907 326.95 59.3502 326.287 60.0548L317.237 69.7163V58.0623C317.237 55.9485 318.732 55.7292 320.641 55.7292V54.859H309.976V55.7292C311.553 55.7292 313.048 55.9369 313.048 58.0623V80.2877C313.048 82.4015 312.051 82.6208 310.058 82.6208V83.4911L320.725 83.4701ZM372.82 83.4701L374.481 76.0484L373.78 75.8408C372.721 77.5789 371.452 79.1805 370.002 80.6097C369.409 81.2922 368.665 81.8274 367.829 82.1728C366.993 82.5183 366.088 82.6645 365.185 82.5998H360.536C359.002 82.5998 357.672 82.4342 357.672 80.5677V69.5787H360.494C364.522 69.5787 366.349 70.5329 366.765 75.1782H367.428V63.2442H366.765C365.809 67.9291 364.148 68.4261 359.955 68.4681H357.67V55.7385H363.978C365.277 55.6957 366.566 55.9855 367.721 56.5805C368.877 57.1755 369.861 58.0559 370.579 59.1379C371.249 59.9746 371.873 60.8469 372.448 61.751L373.32 61.5434L371.285 54.866H350.11V55.7362C351.979 55.7362 353.474 55.9439 353.474 58.0693V80.2947C353.474 82.4085 352.229 82.6278 350.237 82.6278V83.4981L372.82 83.4701Z" fill="white"/>
<path d="M70.5573 21.0566C69.3122 21.1406 68.0671 21.2223 66.8196 21.2223V9.61263C66.8196 7.45682 67.8568 7.12551 69.9756 7.12551C70.9147 7.03431 71.8624 7.14765 72.7533 7.45773C73.6442 7.76781 74.4572 8.26723 75.1361 8.92155C75.8151 9.57587 76.3438 10.3695 76.6858 11.2477C77.0278 12.1259 77.1749 13.0677 77.1171 14.0082C77.2061 14.9137 77.1014 15.8277 76.8101 16.6897C76.5187 17.5517 76.0474 18.342 75.4272 19.0084C74.807 19.6748 74.0522 20.202 73.2126 20.5551C72.3731 20.9082 71.468 21.0791 70.5573 21.0566ZM59.7225 7.29116C61.6311 7.29116 62.6286 7.49881 62.6286 9.62429V31.8497C62.7524 33.9635 61.8811 34.1828 59.5566 34.1828V35.053H70.3518V34.1828C67.8194 34.1828 66.8219 33.9751 66.8219 31.8497V22.0925C68.6291 21.9858 70.4052 22.5972 71.7628 23.7934C74.63 27.2932 77.1603 31.0553 79.32 35.0297H86.2115V34.1595C85.3873 34.2294 84.5616 34.0426 83.848 33.6248C83.1343 33.207 82.5678 32.5787 82.2262 31.8263C80.349 28.1113 77.9592 24.6777 75.1267 21.6259C78.9883 20.3403 81.6445 18.3922 81.6445 14.0386C81.6445 8.14976 76.0378 6.24359 71.0573 6.24359C67.2377 6.24359 63.4182 6.40924 59.7225 6.40924V7.2795V7.29116ZM122.145 21.0146C122.145 27.1507 118.908 34.7381 111.766 34.7381C105.622 34.7381 102.134 28.56 102.134 21.3879C102.134 11.3111 107.274 6.92253 112.264 6.92253C115.917 6.91786 122.145 10.7325 122.145 21.0146ZM111.965 6.04294C110.01 6.03666 108.075 6.43162 106.279 7.20332C104.484 7.97502 102.866 9.10699 101.527 10.529C100.188 11.951 99.1553 13.6327 98.4938 15.4698C97.8324 17.3069 97.556 19.2601 97.6818 21.2083C97.6818 26.3085 100.63 35.5967 111.757 35.5967C113.709 35.7007 115.662 35.3973 117.491 34.7061C119.32 34.0148 120.985 32.9507 122.379 31.5815C123.773 30.2124 124.867 28.5682 125.59 26.7538C126.313 24.9393 126.65 22.9943 126.579 21.0426C126.686 19.079 126.385 17.1146 125.693 15.2733C125.002 13.432 123.936 11.7537 122.563 10.3444C121.19 8.93504 119.539 7.82519 117.715 7.08485C115.891 6.34451 113.933 5.98975 111.965 6.04294ZM153.115 31.8333C153.115 33.6158 152.202 34.0311 149.338 34.1665V35.0367H161.17V34.1665C158.133 34.0428 157.308 33.6275 157.308 31.8333V7.29116H164.083C165.618 7.29116 166.034 7.91411 166.989 9.03168C168.128 10.5536 169.168 12.1465 170.103 13.8006L170.685 13.5113L169.15 5.7583C167.983 6.14577 166.767 6.36879 165.538 6.42091H144.864C143.635 6.36891 142.42 6.14589 141.252 5.7583L139.51 13.4716L140.049 13.7609C141.336 12.2257 142.166 10.4945 143.411 9.03401C144.366 7.91411 144.782 7.2935 146.317 7.2935H153.127V31.8357L153.115 31.8333ZM190.801 9.61263C190.801 7.2795 191.757 7.20717 194.539 7.20717C199.106 7.20717 201.014 10.1516 201.014 14.4212C201.014 21.5536 197.777 21.9665 192.17 21.9665H190.801V9.61263ZM183.536 7.2795C185.613 7.2795 186.608 7.48715 186.608 9.61263V31.838C186.608 33.9518 185.907 34.1711 183.618 34.1711V35.0414H194.452V34.1711C192.294 34.1711 190.799 33.9635 190.799 31.838V22.8415H194.536C199.601 22.8415 205.539 20.9353 205.539 14.8808C205.539 8.95235 200.891 6.33925 195.494 6.33925C191.467 6.33925 187.439 6.33925 183.538 6.42324V7.2935L183.536 7.2795ZM218.643 7.2795C221.341 7.40315 221.633 7.74612 221.633 10.4712V25.9912C221.633 31.1241 224.081 35.6107 232.51 35.6107C241.186 35.6107 243.387 31.299 243.387 25.5339V10.4759C243.387 8.14276 244.716 7.28416 246.916 7.28416V6.41858H237.948V7.28883C240.812 7.45448 242.265 7.62013 242.265 10.4805V25.5316C242.265 30.3821 240.686 34.7357 233.797 34.7357C226.908 34.7357 225.826 30.0508 225.826 27.1064V10.4759C225.826 8.23608 226.366 7.24217 229.48 7.28416V6.41858H218.645V7.28883L218.643 7.2795ZM287.378 35.3494H287.999V9.90194C287.999 8.53472 288.913 7.74612 291.779 7.28883V6.41858H283.224V7.28883C285.756 7.53848 286.878 7.82778 286.878 9.9416V28.9309L266.32 6.41624H260.134V7.2865C261.629 7.3285 262.624 8.48806 263.746 9.69195V31.7073C263.723 31.7452 263.709 31.7873 263.704 31.831C263.538 33.9448 262.085 33.9448 260.092 34.1641V35.0344H268.687V34.1641C265.904 34.0801 264.867 33.2519 264.867 31.831V10.8982L287.378 35.3494ZM317.079 35.0181V34.1478C315.086 34.1478 313.591 33.9402 313.591 31.8147V22.6315L314.92 21.3039L326.087 35.0274H332.647V34.1571C332.106 34.2196 331.557 34.1627 331.041 33.9906C330.524 33.8185 330.052 33.5352 329.656 33.1609L317.742 18.2289L324.966 10.5575C325.702 9.61162 326.629 8.83167 327.688 8.26877C328.747 7.70587 329.913 7.37273 331.109 7.29116V6.41858H321.312V7.28883C322.225 7.33083 324.384 7.33083 324.384 8.74004C324.384 9.73628 323.305 10.8958 322.641 11.6005L313.591 21.2619V9.61263C313.591 7.49881 315.086 7.2795 316.995 7.2795V6.41858H306.328V7.28883C307.905 7.28883 309.4 7.49648 309.4 9.62196V31.8473C309.4 33.9611 308.403 34.1805 306.41 34.1805V35.0507L317.079 35.0181ZM358.239 31.8263C358.239 33.6088 357.325 34.0241 354.461 34.1595V35.0297H366.293V34.1595C363.257 34.0358 362.432 33.6205 362.432 31.8263V7.29116H369.207C370.741 7.29116 371.157 7.91411 372.113 9.03168C373.251 10.5536 374.291 12.1465 375.227 13.8006L375.808 13.5113L374.274 5.7583C373.106 6.14577 371.891 6.36879 370.662 6.42091H349.987C348.759 6.36891 347.543 6.14589 346.376 5.7583L344.633 13.4716L345.173 13.7609C346.46 12.2257 347.289 10.4945 348.537 9.03401C349.492 7.91411 349.908 7.2935 351.443 7.2935H358.253V31.8357L358.239 31.8263Z" fill="white"/>
<path d="M22.943 87.0001C26.4376 87.0024 29.8544 85.9695 32.7611 84.032C35.6678 82.0946 37.9339 79.3396 39.2726 76.1157C40.6113 72.8918 40.9626 69.3437 40.2819 65.9204C39.6012 62.4971 37.9192 59.3523 35.4486 56.8839C32.978 54.4155 29.8299 52.7344 26.4025 52.0532C22.975 51.372 19.4223 51.7214 16.1938 53.0571C12.9652 54.3928 10.2059 56.6549 8.26479 59.5572C6.32372 62.4594 5.28814 65.8715 5.28906 69.3616C5.2903 74.0381 7.15043 78.5227 10.4607 81.8301C13.771 85.1374 18.2606 86.997 22.943 87.0001Z" fill="white"/>
<path d="M43.7414 14.5517H29.4024V0H15.1522V14.5517H0.796875V28.4315H15.1592V42.9296H29.4094V28.4315H43.7484V14.5517H43.7414Z" fill="white"/>
</svg>
