<svg width="330" height="44" viewBox="0 0 330 44" fill="none" xmlns="http://www.w3.org/2000/svg">
<path d="M0.800952 35.4187L6.37142 29.2951C8.98995 32.9911 12.2753 34.7014 15.6159 34.7014C18.6783 34.7014 20.5174 33.1005 20.5174 30.5088C20.5174 27.9171 18.7908 26.7013 14.1123 24.7723C7.48424 22.1785 2.75051 19.2566 2.75051 12.3588C2.75051 5.461 8.70962 0 16.9517 0C22.966 0 27.1986 2.2067 30.2631 5.5725L24.9156 12.0832C23.189 9.87651 20.7934 8.44183 17.6759 8.44183C15.1147 8.44183 13.2756 9.82181 13.2756 11.8623C13.2756 13.9028 15.2803 14.9525 20.1267 16.9383C27.1433 19.6416 31.0977 23.062 31.0977 30.1239C31.0977 38.0125 24.8604 43.0885 16.2827 43.0885C8.93048 43.0885 3.69555 39.889 0.798828 35.4208L0.800952 35.4187Z" fill="white"/>
<path d="M80.291 42.369L77.5621 34.4805H62.1906L59.2939 42.369H48.2656L65.476 0.771973H74.7779L91.7654 42.369H80.2931H80.291ZM65.0301 26.7012H74.8332L72.7731 20.7437C71.8259 17.986 70.9361 15.2828 70.0993 12.5796C69.2074 15.2828 68.2623 17.986 67.26 20.6891L65.0322 26.7034L65.0301 26.7012Z" fill="white"/>
<path d="M140.431 0.771973H150.512V42.369H142.158L121.105 16.1642L121.273 42.369H111.137V0.771973H119.714L140.767 26.8106L140.433 0.771973H140.431Z" fill="white"/>
<path d="M175.811 42.369V0.771973H187.84C202.099 0.771973 212.068 7.72235 212.068 21.5705C212.068 35.4186 202.266 42.369 188.51 42.369H175.811ZM186.115 33.376H188.342C196.251 33.376 201.486 29.293 201.486 21.5705C201.486 13.8481 197.03 10.0405 188.342 10.0405H186.115V33.376Z" fill="white"/>
<path d="M231.222 21.5158C231.222 9.21385 241.469 0.0546875 253.833 0.0546875C266.197 0.0546875 276.333 9.15707 276.333 21.6252C276.333 34.0934 266.086 43.0863 253.665 43.0863C241.243 43.0863 231.219 34.4257 231.219 21.5158H231.222ZM265.695 21.6252C265.695 14.7842 260.628 9.48734 253.777 9.48734C246.925 9.48734 241.859 14.8389 241.859 21.5685C241.859 28.685 247.261 33.6496 253.667 33.6496C260.518 33.6496 265.698 28.5188 265.698 21.6231L265.695 21.6252Z" fill="white"/>
<path d="M293.262 42.369V42.2596L312.923 9.82175H296.715V0.771973H329.797V0.881361L310.304 33.1551H328.682V42.369H293.262Z" fill="white"/>
</svg>
