<svg width="40" height="40" viewBox="0 0 40 40" fill="none" xmlns="http://www.w3.org/2000/svg">
<rect width="40" height="40" rx="20" fill="#E2E8EC"/>
<path d="M14.2222 14.2182C14.1693 14.5093 14.1428 14.8003 14.1428 15.0914C14.1163 15.6206 14.1163 16.1498 14.1958 16.7055C14.2487 17.2083 14.3546 17.711 14.4871 18.2932C14.54 18.5313 14.6195 18.7695 14.7254 19.0605C14.8048 19.2722 14.9108 19.5368 15.0167 19.8014C15.3874 20.7011 15.9171 21.6008 16.6586 22.6063C17.2677 23.4266 17.9827 24.2469 18.8831 25.0672C18.936 25.1201 18.989 25.173 19.0685 25.2259H24.1265V19.2722H18.989V14.2182H14.2222Z" fill="#009E4B"/>
<path d="M11.6016 19.2722H8V25.1994H13.0846V30.2799H18.9901V29.4861C12.396 24.2469 11.6016 19.2722 11.6016 19.2722Z" fill="#009E4B"/>
<path d="M32.8406 18.3197L32.8141 17.1819V17.129C32.7611 16.8115 32.7347 16.4939 32.6552 16.1764C32.6022 15.8589 32.4963 15.5678 32.3904 15.2503C32.2845 14.9592 32.1521 14.6417 31.9932 14.3771C31.9137 14.2448 31.8343 14.086 31.7548 13.9537C31.6754 13.8214 31.5959 13.6891 31.49 13.5568C31.3046 13.2922 31.0928 13.054 30.8544 12.8159C30.6161 12.5777 30.3778 12.3925 30.1129 12.2073C29.8481 12.0221 29.5568 11.8633 29.2655 11.731C28.9477 11.5987 28.6564 11.4928 28.3121 11.4399C28.2327 11.4135 28.1533 11.4135 28.0738 11.387L27.862 11.3605H27.756H27.7031H27.6766H27.6236H27.3853C27.094 11.3605 26.7762 11.3605 26.4584 11.4135C26.1406 11.4399 25.8493 11.5193 25.5315 11.5987C25.4256 11.6251 25.3197 11.6781 25.2137 11.731C25.0284 11.8104 24.843 11.8897 24.6841 11.9956C24.1545 12.3131 23.7043 12.7365 23.307 13.1863C22.9363 13.6362 22.592 14.1125 22.2478 14.5888C22.6715 14.1654 23.0687 13.742 23.4924 13.3716C23.5454 13.3186 23.5983 13.2922 23.6513 13.2393C23.8102 13.1069 23.9691 12.9746 24.1545 12.8688C24.3928 12.71 24.6311 12.5777 24.896 12.4719C25.1343 12.366 25.3991 12.2867 25.6639 12.2337C25.9288 12.1808 26.1936 12.1544 26.4584 12.1808C26.7232 12.1808 27.0145 12.2073 27.2794 12.2337L27.4912 12.2602H27.5442H27.5707C27.5971 12.2602 27.5442 12.2602 27.5442 12.2602H27.5707L27.6766 12.2867L27.8884 12.3396C27.9414 12.366 27.9944 12.366 28.0738 12.3925C28.2857 12.4719 28.5505 12.5777 28.7623 12.71C28.8948 12.7894 29.0007 12.8423 29.1066 12.9217C29.2125 13.0011 29.292 13.054 29.3979 13.1334C29.5833 13.2922 29.7687 13.4774 29.954 13.6626C30.1129 13.8479 30.2718 14.0595 30.4042 14.2977C30.4837 14.4035 30.5366 14.5094 30.5896 14.6417C30.6426 14.7475 30.6955 14.8798 30.7485 14.9857C30.8544 15.2238 30.9339 15.462 31.0133 15.7266C31.0663 15.9912 31.1457 16.2293 31.1722 16.4939C31.2252 16.7321 31.2252 16.9967 31.2517 17.2348L31.2252 18.2933C31.1722 18.5843 31.1457 18.9019 31.0663 19.1929C31.0398 19.3517 30.9868 19.484 30.9339 19.6428C30.8809 19.7751 30.8544 19.9338 30.8015 20.0662C30.6955 20.3572 30.5896 20.6483 30.4307 20.9129C30.2983 21.204 30.1394 21.4686 29.9805 21.7332C29.8216 21.9978 29.6363 22.2624 29.4774 22.527C29.292 22.7916 29.1066 23.0298 28.9212 23.2944L28.3121 24.0353L27.6501 24.7497L26.9616 25.4377C26.7232 25.6759 26.4849 25.8875 26.2465 26.1257C26.0082 26.3638 25.7699 26.5755 25.5051 26.7872C25.2667 26.9989 25.0019 27.2106 24.7636 27.4223L23.9956 28.0573L23.2011 28.6659C22.8833 28.9041 22.5655 29.1422 22.2478 29.3804C21.5063 28.8247 20.7912 28.2426 20.0762 27.6869C19.7055 27.3958 19.3612 27.1047 19.0169 26.7872C18.4873 26.3374 17.9577 25.8875 17.4545 25.4112C16.6336 24.6174 15.8391 23.7707 15.177 22.871C14.515 21.9713 13.9324 20.9923 13.4822 19.9603C13.3763 19.6957 13.2703 19.4311 13.1909 19.1929C13.1644 19.0871 13.1379 19.0077 13.1114 18.9283C13.0585 18.7431 13.0055 18.5579 12.9526 18.3727C12.8201 17.8434 12.7142 17.2878 12.6348 16.7321C12.5818 16.1764 12.5553 15.6207 12.5818 15.0386C12.6083 14.4829 12.6877 13.9272 12.8201 13.3716C13.0585 12.2602 13.5352 11.2018 14.2237 10.2756C14.9122 9.3495 15.8126 8.55568 16.8719 8C16.6071 8.07938 16.3158 8.18523 16.051 8.31753C15.2035 8.68798 14.4355 9.24366 13.8 9.93164C12.9261 10.8049 12.2905 11.9427 11.8668 13.1069C11.6549 13.6891 11.5225 14.3241 11.4166 14.9327C11.3371 15.5678 11.2842 16.1764 11.2842 16.8115C11.2842 17.4465 11.3636 18.0816 11.4696 18.6902C11.496 18.8754 11.549 19.0871 11.602 19.2723C11.602 19.2723 12.4229 24.2205 19.0169 29.4598C19.8644 30.1742 20.7383 30.8357 21.5857 31.4972L22.2213 32L22.3537 31.8942L22.8304 31.5502C23.3865 31.1533 23.9426 30.7563 24.4987 30.3065L25.3197 29.6714L26.1141 29.0099C26.379 28.7982 26.6438 28.5601 26.9086 28.3219C27.1734 28.0838 27.4382 27.8721 27.6766 27.6075C27.9149 27.3694 28.1797 27.1312 28.4181 26.8666L29.1331 26.0992L29.8216 25.2789L30.4572 24.4322C30.6691 24.1411 30.8544 23.8501 31.0663 23.5325C31.2517 23.215 31.437 22.9239 31.5959 22.6064C31.7548 22.2889 31.9402 21.9713 32.0726 21.6273C32.2315 21.2834 32.3374 20.9394 32.4698 20.5954C32.5228 20.4101 32.5758 20.2249 32.6022 20.0662C32.6552 19.8809 32.6817 19.6957 32.7082 19.5105C32.7876 19.14 32.8141 18.7696 32.8406 18.3991V18.3197Z" fill="#04659A"/>
</svg>
