<svg width="117" height="157" viewBox="0 0 117 157" fill="none" xmlns="http://www.w3.org/2000/svg">
<path d="M58.3063 0C26.1042 0 0 26.105 0 58.3071C0 85.2122 40.7018 138.031 54.0925 154.681C56.2582 157.374 60.3552 157.374 62.5209 154.681C75.9116 138.03 116.613 85.2113 116.613 58.3063C116.613 26.1042 90.5084 0 58.3063 0ZM58.3063 105.298C32.3532 105.298 11.3143 84.2594 11.3143 58.3063C11.3143 32.3532 32.3532 11.3143 58.3063 11.3143C84.2594 11.3143 105.298 32.3532 105.298 58.3063C105.298 84.2594 84.2594 105.298 58.3063 105.298Z" fill="url(#paint0_linear_397_964)"/>
<path d="M58.7295 96.8507C79.7849 96.8507 96.8536 79.782 96.8536 58.7266C96.8536 37.6713 79.7849 20.6025 58.7295 20.6025C37.6742 20.6025 20.6055 37.6713 20.6055 58.7266C20.6055 79.782 37.6742 96.8507 58.7295 96.8507Z" fill="white"/>
<path d="M45.9451 46.7241C45.8388 47.3081 45.7857 47.8921 45.7857 48.4761C45.7326 49.5379 45.7326 50.5997 45.8919 51.7146C45.9982 52.7233 46.2107 53.7321 46.4764 54.9001C46.5827 55.3779 46.7421 55.8557 46.9546 56.4397C47.114 56.8644 47.3265 57.3953 47.5391 57.9262C48.2829 59.7313 49.3456 61.5364 50.8333 63.5538C52.0554 65.1996 53.49 66.8454 55.2965 68.4912C55.4028 68.5974 55.509 68.7036 55.6684 68.8098H65.8168V56.8644H55.509V46.7241H45.9451Z" fill="#009E4B"/>
<path d="M40.6831 56.8657H33.457V68.758H43.6586V78.9514H55.5072V77.3586C42.2771 66.8467 40.6831 56.8657 40.6831 56.8657Z" fill="#009E4B"/>
<path d="M83.3011 54.9533L83.2479 52.6704V52.5643C83.1417 51.9272 83.0885 51.2901 82.9291 50.653C82.8229 50.0159 82.6103 49.4319 82.3978 48.7948C82.1853 48.2108 81.9196 47.5738 81.6008 47.0429C81.4414 46.7774 81.282 46.4589 81.1226 46.1934C80.9632 45.928 80.8038 45.6625 80.5913 45.397C80.2193 44.8661 79.7943 44.3883 79.3161 43.9105C78.8379 43.4327 78.3597 43.0611 77.8284 42.6894C77.297 42.3178 76.7126 41.9993 76.1281 41.7338C75.4905 41.4684 74.906 41.256 74.2153 41.1498C74.0559 41.0967 73.8965 41.0967 73.7371 41.0436L73.3121 40.9905H73.0995H72.9933H72.9401H72.8339H72.3557C71.7712 40.9905 71.1336 40.9905 70.496 41.0967C69.8584 41.1498 69.2739 41.3091 68.6363 41.4684C68.4238 41.5214 68.2113 41.6276 67.9988 41.7338C67.6268 41.8931 67.2549 42.0523 66.9361 42.2647C65.8734 42.9018 64.9702 43.7512 64.1732 44.6538C63.4293 45.5563 62.7386 46.5119 62.0479 47.4676C62.898 46.6181 63.695 45.7687 64.5451 45.0254C64.6514 44.9192 64.7576 44.8661 64.8639 44.76C65.1827 44.4945 65.5015 44.2291 65.8734 44.0167C66.3516 43.6982 66.8298 43.4327 67.3612 43.2203C67.8394 43.008 68.3707 42.8487 68.902 42.7425C69.4333 42.6363 69.9647 42.5833 70.496 42.6363C71.0273 42.6363 71.6118 42.6894 72.1431 42.7425L72.5682 42.7956H72.6745H72.7276C72.7807 42.7956 72.6745 42.7956 72.6745 42.7956H72.7276L72.9401 42.8487L73.3652 42.9549C73.4715 43.008 73.5777 43.008 73.7371 43.0611C74.1622 43.2203 74.6935 43.4327 75.1186 43.6982C75.3842 43.8574 75.5968 43.9636 75.8093 44.1229C76.0218 44.2821 76.1812 44.3883 76.3938 44.5476C76.7657 44.8661 77.1376 45.2378 77.5096 45.6094C77.8284 45.981 78.1472 46.4058 78.4128 46.8836C78.5722 47.0959 78.6785 47.3083 78.7848 47.5738C78.891 47.7861 78.9973 48.0516 79.1036 48.2639C79.3161 48.7417 79.4755 49.2196 79.6349 49.7505C79.7411 50.2814 79.9005 50.7592 79.9537 51.2901C80.0599 51.7679 80.0599 52.2988 80.1131 52.7766L80.0599 54.9002C79.9537 55.4842 79.9005 56.1213 79.7411 56.7053C79.688 57.0239 79.5817 57.2893 79.4755 57.6079C79.3692 57.8733 79.3161 58.1918 79.2098 58.4573C78.9973 59.0413 78.7848 59.6253 78.466 60.1562C78.2003 60.7402 77.8815 61.2711 77.5627 61.802C77.2439 62.3329 76.872 62.8638 76.5532 63.3947C76.1812 63.9256 75.8093 64.4034 75.4374 64.9343L74.2153 66.4209L72.887 67.8543L71.5055 69.2347C71.0273 69.7125 70.5491 70.1372 70.0709 70.615C69.5927 71.0928 69.1145 71.5176 68.5832 71.9423C68.105 72.367 67.5737 72.7917 67.0955 73.2165L65.5546 74.4906L63.9606 75.7117C63.323 76.1895 62.6854 76.6673 62.0479 77.1451C60.5601 76.0303 59.1255 74.8623 57.6909 73.7474C56.9471 73.1634 56.2564 72.5794 55.5656 71.9423C54.503 71.0397 53.4403 70.1372 52.4308 69.1816C50.7837 67.5889 49.1897 65.89 47.8613 64.0849C46.533 62.2798 45.3641 60.3155 44.4608 58.2449C44.2483 57.714 44.0358 57.1831 43.8764 56.7053C43.8232 56.493 43.7701 56.3337 43.717 56.1744C43.6107 55.8028 43.5044 55.4311 43.3982 55.0595C43.1325 53.9977 42.92 52.8828 42.7606 51.7679C42.6543 50.653 42.6012 49.5381 42.6543 48.3701C42.7074 47.2552 42.8668 46.1403 43.1325 45.0254C43.6107 42.7956 44.5671 40.672 45.9485 38.8138C47.33 36.9557 49.1365 35.3629 51.2618 34.248C50.7305 34.4073 50.1461 34.6197 49.6147 34.8851C47.9145 35.6284 46.3736 36.7433 45.0984 38.1237C43.345 39.8756 42.0698 42.1585 41.2197 44.4945C40.7946 45.6625 40.529 46.9367 40.3164 48.1578C40.157 49.4319 40.0508 50.653 40.0508 51.9272C40.0508 53.2013 40.2102 54.4755 40.4227 55.6966C40.4758 56.0682 40.5821 56.493 40.6884 56.8646C40.6884 56.8646 42.3355 66.7925 55.5656 77.3044C57.2659 78.7379 59.0193 80.0651 60.7195 81.3924L61.9947 82.4011L62.2604 82.1887L63.2168 81.4986C64.3326 80.7022 65.4484 79.9059 66.5642 79.0033L68.2113 77.7291L69.8053 76.4019C70.3366 75.9772 70.8679 75.4993 71.3993 75.0215C71.9306 74.5437 72.4619 74.119 72.9401 73.5881C73.4183 73.1103 73.9496 72.6325 74.4278 72.1016L75.8624 70.5619L77.2439 68.9161L78.5191 67.2172C78.9442 66.6332 79.3161 66.0492 79.7411 65.4122C80.1131 64.7751 80.485 64.1911 80.8038 63.554C81.1226 62.9169 81.4945 62.2798 81.7602 61.5896C82.079 60.8995 82.2915 60.2093 82.5572 59.5191C82.6635 59.1475 82.7697 58.7758 82.8229 58.4573C82.9291 58.0857 82.9823 57.714 83.0354 57.3424C83.1948 56.5991 83.2479 55.8559 83.3011 55.1126V54.9533Z" fill="#04659A"/>
<defs>
<linearGradient id="paint0_linear_397_964" x1="27.239" y1="5.2071" x2="110.418" y2="146.184" gradientUnits="userSpaceOnUse">
<stop stop-color="#1C98AA"/>
<stop offset="1" stop-color="#0E679C"/>
</linearGradient>
</defs>
</svg>
