<svg width="41" height="41" viewBox="0 0 41 41" fill="none" xmlns="http://www.w3.org/2000/svg">
<circle cx="20.5" cy="20.5" r="20.5" fill="url(#paint0_linear_250_2039)"/>
<path d="M30.6248 25.901L27.8748 22.8928C27.45 22.4281 26.7498 22.3458 26.2498 22.7283L23.9999 24.4236C23.7499 24.4514 22.4501 24.5059 20.2001 22.0446L19.1005 20.8417C16.8252 18.3526 16.9004 16.9307 16.9258 16.6851L18.4756 14.1961C18.8252 13.6491 18.751 12.8832 18.3252 12.4185L15.5752 9.41022C15.3252 9.13674 15.0254 9 14.6748 9C14.3252 9 14.0244 9.13674 13.7744 9.41022L12.0244 11.3246C10.7246 12.7742 10 14.6886 10 16.6852C10 18.7085 10.7246 20.5962 12.0254 22.018L19.1006 29.7577C20.4004 31.2074 22.1503 32 24 32C25.8498 32 27.5753 31.2074 28.875 29.7844L30.625 27.8701C31.125 27.3231 31.125 26.4482 30.625 25.9012L30.6248 25.901ZM29.9246 27.1049L28.1746 29.0193C27.0496 30.2221 25.5752 30.9058 23.9999 30.9058C22.4247 30.9058 20.9247 30.2221 19.8252 29.0193L12.7247 21.2796C11.6252 20.049 11.0002 18.4349 11.0002 16.6849C11.0002 14.9618 11.6252 13.3209 12.7247 12.1181L14.4747 10.2038C14.5245 10.1493 14.5997 10.1216 14.6749 10.1216C14.7501 10.1216 14.8253 10.1493 14.8751 10.2038L17.6251 13.2121C17.7247 13.321 17.7247 13.4855 17.6505 13.5945L16.0509 16.1647C16.0255 16.1925 16.0011 16.247 16.0011 16.2737C15.9259 16.4649 15.4015 18.3526 18.4015 21.6344L19.5011 22.8372C22.501 26.119 24.2255 25.5442 24.4015 25.4631C24.4513 25.4353 24.4767 25.4353 24.5011 25.4086L26.8507 23.6588C26.9503 23.5765 27.1007 23.6043 27.2003 23.6865L29.9503 26.6948C30.0255 26.8037 30.0255 26.9683 29.9249 27.105L29.9246 27.1049Z" fill="white"/>
<defs>
<linearGradient id="paint0_linear_250_2039" x1="20.5" y1="0" x2="20.5" y2="41" gradientUnits="userSpaceOnUse">
<stop stop-color="#18669C"/>
<stop offset="1" stop-color="#2596A9"/>
</linearGradient>
</defs>
</svg>
