<svg width="47" height="47" viewBox="0 0 47 47" fill="none" xmlns="http://www.w3.org/2000/svg">
<path d="M1.33386 46.0023C0.233215 44.9017 0.233217 43.1109 1.33386 42.0102L19.6759 23.6682L1.33386 5.3262C0.233214 4.22555 0.233213 2.43476 1.33386 1.33411C2.43451 0.233461 4.22548 0.233284 5.32613 1.33393L23.6681 19.6759L42.01 1.33411C43.1106 0.233458 44.9014 0.233461 46.0021 1.33411C47.1027 2.43476 47.1029 4.22573 46.0023 5.32638L27.6604 23.6682L46.0022 42.0101C47.1029 43.1107 47.1027 44.9017 46.0021 46.0023C44.9014 47.103 43.1106 47.103 42.01 46.0023L23.6681 27.6605L5.32613 46.0025C4.22549 47.1031 2.43451 47.103 1.33386 46.0023Z" fill="#5C606E"/>
</svg>
