<svg width="41" height="41" viewBox="0 0 41 41" fill="none" xmlns="http://www.w3.org/2000/svg">
<path d="M38.4424 -4.57764e-05C38.7782 -0.00192395 39.1113 0.062683 39.4219 0.190384C39.7324 0.318116 40.0144 0.50679 40.252 0.744095C40.4894 0.981584 40.6779 1.26344 40.8057 1.57417C40.9334 1.88474 40.9978 2.21785 40.9961 2.55367C40.9942 2.88948 40.9258 3.2219 40.7949 3.5312C40.6639 3.84039 40.4724 4.12049 40.2324 4.35542L4.33398 40.2539C4.09873 40.4901 3.81892 40.6772 3.51074 40.8046C3.20227 40.9322 2.87084 40.9981 2.53711 40.997C2.03528 40.9963 1.54428 40.8465 1.12695 40.5673C0.710138 40.2884 0.385323 39.8922 0.193359 39.4287C0.00136604 38.965 -0.0488049 38.4544 0.0488281 37.9619C0.146684 37.4697 0.387558 37.0172 0.742188 36.6621L36.6406 0.763626C36.8756 0.523608 37.1565 0.332197 37.4658 0.201126C37.7747 0.0701976 38.1068 0.00185316 38.4424 -4.57764e-05Z" fill="#009E4B"/>
<path d="M2.54785 0C2.88352 0.00109987 3.216 0.0690383 3.52539 0.199219C3.83472 0.329449 4.11507 0.519521 4.35059 0.758789L40.249 36.6572C40.6036 37.0124 40.8457 37.4647 40.9434 37.957C41.0412 38.4494 40.9908 38.9601 40.7988 39.4238C40.6068 39.8875 40.2816 40.2842 39.8643 40.5635C39.447 40.8425 38.9561 40.9918 38.4541 40.9922L38.4609 41C38.1274 41.0008 37.7963 40.9361 37.4883 40.8086C37.1803 40.6811 36.9012 40.493 36.666 40.2568L0.767578 4.3584C0.527186 4.12406 0.33482 3.84496 0.203125 3.53613C0.0714682 3.22733 0.00254456 2.89507 0 2.55957C-0.00250454 2.22375 0.0615798 1.88987 0.188477 1.5791C0.315579 1.26848 0.50344 0.986093 0.740234 0.748047C0.976959 0.510343 1.25829 0.32167 1.56836 0.193359C1.8785 0.0650017 2.21203 -0.00104356 2.54785 0Z" fill="#0D659B"/>
</svg>
