<svg width="38" height="38" viewBox="0 0 38 38" fill="none" xmlns="http://www.w3.org/2000/svg">
<g clip-path="url(#clip0_1838_760)">
<path d="M19 38C29.4934 38 38 29.4934 38 19C38 8.50659 29.4934 0 19 0C8.50659 0 0 8.50659 0 19C0 29.4934 8.50659 38 19 38Z" fill="#F4DD01"/>
<path d="M20.7306 28.2541H13.0229V9.6582H15.9439V25.3319H20.7255L20.7306 28.2541Z" fill="black"/>
<path d="M24.9878 26.8476C24.9901 27.1936 24.8723 27.5297 24.6544 27.7986C24.4365 28.0674 24.1321 28.2523 23.7931 28.3217C23.4541 28.3912 23.1015 28.3408 22.7955 28.1793C22.4895 28.0178 22.249 27.7551 22.115 27.436C21.9811 27.1169 21.962 26.7613 22.0611 26.4297C22.1601 26.0981 22.3711 25.8112 22.6581 25.6179C22.9451 25.4245 23.2902 25.3367 23.6347 25.3695C23.9792 25.4023 24.3016 25.5535 24.547 25.7975C24.6883 25.9332 24.8003 26.0963 24.8762 26.2769C24.952 26.4575 24.99 26.6517 24.9878 26.8476Z" fill="black"/>
</g>
<defs>
<clipPath id="clip0_1838_760">
<rect width="38" height="38" fill="white"/>
</clipPath>
</defs>
</svg>
