<svg width="37" height="37" viewBox="0 0 37 37" fill="none" xmlns="http://www.w3.org/2000/svg">
<g clip-path="url(#clip0_389_666)">
<path d="M-8.08661e-07 18.5C-1.25527e-06 28.7173 8.28273 37 18.5 37C28.7173 37 37 28.7173 37 18.5C37 8.28273 28.7173 -3.6205e-07 18.5 -8.08661e-07C8.28273 -1.25527e-06 -3.6205e-07 8.28273 -8.08661e-07 18.5Z" fill="#0D659B"/>
<path d="M11.8551 11.8546C12.1825 11.5272 12.7153 11.5272 13.0428 11.8546L18.4997 17.3116L23.9567 11.8546C24.2842 11.5272 24.817 11.5272 25.1444 11.8546C25.4719 12.1821 25.4719 12.7149 25.1445 13.0424L19.6875 18.4993L25.1444 23.9562C25.4719 24.2837 25.4719 24.8165 25.1444 25.1439C24.8169 25.4714 24.2841 25.4714 23.9567 25.144L18.4997 19.6871L13.0428 25.144C12.7154 25.4714 12.1825 25.4714 11.8551 25.1439C11.5276 24.8165 11.5276 24.2837 11.8551 23.9562L17.312 18.4993L11.855 13.0424C11.5276 12.7149 11.5276 12.1821 11.8551 11.8546Z" fill="white"/>
</g>
<defs>
<clipPath id="clip0_389_666">
<rect width="37" height="37" fill="white" transform="translate(37) rotate(90)"/>
</clipPath>
</defs>
</svg>
