<svg width="15" height="15" viewBox="0 0 15 15" fill="none" xmlns="http://www.w3.org/2000/svg">
<path d="M0.855091 0.85461C1.18255 0.527154 1.71533 0.527155 2.04279 0.854611L7.49975 6.31157L12.9567 0.85461C13.2842 0.527155 13.817 0.527155 14.1444 0.85461C14.4719 1.18207 14.4719 1.7149 14.1445 2.04236L8.68749 7.49932L14.1444 12.9562C14.4719 13.2837 14.4719 13.8165 14.1444 14.1439C13.8169 14.4714 13.2841 14.4714 12.9567 14.144L7.49975 8.68707L2.04284 14.144C1.71538 14.4714 1.18255 14.4714 0.855091 14.1439C0.527635 13.8165 0.527637 13.2837 0.855093 12.9562L6.312 7.49932L0.855041 2.04236C0.527585 1.7149 0.527636 1.18206 0.855091 0.85461Z" fill="white"/>
</svg>
