<svg width="23" height="31" viewBox="0 0 23 31" fill="none" xmlns="http://www.w3.org/2000/svg">
<path d="M11.4217 0.000808057C11.0829 0.000808057 10.758 0.135395 10.5184 0.374951C10.2789 0.614507 10.1443 0.939404 10.1443 1.27819V21.0848L2.18313 13.0852C2.06437 12.9664 1.92339 12.8722 1.76824 12.8079C1.61308 12.7437 1.44679 12.7106 1.27885 12.7106C1.11091 12.7106 0.944604 12.7437 0.789447 12.8079C0.634291 12.8722 0.49331 12.9664 0.374559 13.0852C0.255807 13.2039 0.161614 13.3449 0.0973464 13.5C0.0330786 13.6552 0 13.8215 0 13.9894C0 14.1574 0.0330786 14.3237 0.0973464 14.4788C0.161614 14.634 0.255807 14.775 0.374559 14.8937L10.5206 25.0398C10.58 25.0984 10.6442 25.1521 10.7124 25.2002H10.7637L10.9298 25.2901H11.0101C11.0633 25.3119 11.1191 25.327 11.1762 25.335C11.2588 25.3448 11.3423 25.3448 11.4249 25.335C11.5097 25.3448 11.5953 25.3448 11.68 25.335C11.735 25.3261 11.7889 25.3111 11.8405 25.2901H11.9208L12.0869 25.2002H12.1382L12.3364 25.0398L22.4712 14.8937C22.59 14.775 22.6842 14.6341 22.7485 14.479C22.8127 14.3239 22.8459 14.1576 22.8459 13.9897C22.8459 13.8218 22.8129 13.6556 22.7487 13.5004C22.6845 13.3453 22.5903 13.2043 22.4716 13.0856C22.3529 12.9668 22.212 12.8726 22.0569 12.8083C21.9018 12.744 21.7355 12.7109 21.5676 12.7109C21.3997 12.7108 21.2334 12.7439 21.0783 12.8081C20.9232 12.8723 20.7822 12.9665 20.6635 13.0852L12.7023 21.0528V1.27739C12.7021 0.938674 12.5674 0.613885 12.3279 0.374375C12.0884 0.134866 11.7636 0.000212562 11.4249 0L11.4217 0.000808057Z" fill="white"/>
<path d="M1.27741 30.7582H21.5703C21.9037 30.7498 22.2205 30.6116 22.4533 30.3728C22.6862 30.1341 22.8165 29.8139 22.8165 29.4804C22.8165 29.147 22.6862 28.8267 22.4533 28.588C22.2205 28.3493 21.9037 28.211 21.5703 28.2026H1.27741C0.944063 28.211 0.627187 28.3493 0.394374 28.588C0.161561 28.8267 0.03125 29.147 0.03125 29.4804C0.03125 29.8139 0.161561 30.1341 0.394374 30.3728C0.627187 30.6116 0.944063 30.7498 1.27741 30.7582Z" fill="white"/>
</svg>
