<svg width="41" height="41" viewBox="0 0 41 41" fill="none" xmlns="http://www.w3.org/2000/svg">
<circle cx="20.5" cy="20.5" r="20.5" fill="url(#paint0_linear_250_2045)"/>
<path d="M29.9599 12.3008H11.8514C10.2879 12.3008 9.01562 13.573 9.01562 15.1365V25.7038C9.01562 27.2673 10.2879 28.5395 11.8514 28.5395H29.9599C31.5234 28.5395 32.7956 27.2673 32.7956 25.7038V15.1395C32.7956 13.576 31.5234 12.3008 29.9599 12.3008ZM31.6393 25.7038C31.6393 26.6312 30.8843 27.3832 29.9599 27.3832H11.8514C10.924 27.3832 10.1719 26.6282 10.1719 25.7038V15.1395C10.1719 14.2121 10.9269 13.4601 11.8514 13.4601H29.9599C30.8843 13.4601 31.6393 14.2121 31.6393 15.1395V25.7038Z" fill="white"/>
<path d="M29.7177 25.1989L23.7965 20.4191L29.7117 15.6423C29.9585 15.4402 30.0001 15.0776 29.7979 14.8279C29.5958 14.5782 29.2332 14.5395 28.9835 14.7417L20.9042 21.2663L12.822 14.7387C12.5753 14.5395 12.2097 14.5782 12.0075 14.8249C11.8084 15.0746 11.847 15.4372 12.0937 15.6394L18.012 20.4191L12.0908 25.1989C11.8411 25.4011 11.8024 25.7637 12.0046 26.0134C12.1205 26.1561 12.2869 26.2274 12.4564 26.2274C12.5842 26.2274 12.712 26.1858 12.819 26.0996L18.9335 21.1623L20.5416 22.4613C20.6486 22.5475 20.7764 22.5891 20.9042 22.5891C21.032 22.5891 21.1599 22.5475 21.2669 22.4613L22.875 21.1623L28.9924 26.0996C29.0994 26.1858 29.2272 26.2274 29.355 26.2274C29.5245 26.2274 29.6909 26.1531 29.8069 26.0134C30.006 25.7637 29.9674 25.3981 29.7177 25.1989Z" fill="white"/>
<defs>
<linearGradient id="paint0_linear_250_2045" x1="20.5" y1="0" x2="20.5" y2="41" gradientUnits="userSpaceOnUse">
<stop stop-color="#18669C"/>
<stop offset="1" stop-color="#2596A9"/>
</linearGradient>
</defs>
</svg>
