<svg width="470" height="523" viewBox="0 0 470 523" fill="none" xmlns="http://www.w3.org/2000/svg">
<path d="M470 224.884L469.423 200.089V198.936C468.268 192.017 467.69 185.097 465.958 178.178C464.803 171.258 462.494 164.915 460.184 157.996C457.875 151.653 454.988 144.733 451.523 138.967C449.791 136.084 448.059 132.624 446.327 129.741C444.595 126.858 442.862 123.975 440.553 121.092C436.511 115.325 431.892 110.136 426.695 104.946C421.499 99.7563 416.302 95.72 410.528 91.6836C404.754 87.6472 398.403 84.1874 392.052 81.3043C385.123 78.4212 378.771 76.1147 371.265 74.9614C369.533 74.3848 367.801 74.3848 366.069 73.8082L361.45 73.2315H359.14H357.985H357.408H356.253H351.056C344.705 73.2315 337.776 73.2315 330.848 74.3848C323.919 74.9614 317.568 76.6913 310.639 78.4212C308.329 78.9978 306.02 80.1511 303.71 81.3043C299.668 83.0342 295.627 84.7641 292.162 87.0706C280.614 93.9901 270.799 103.216 262.138 113.019C254.054 122.821 246.548 133.201 239.042 143.58C248.28 134.354 256.941 125.128 266.179 117.055C267.334 115.902 268.489 115.325 269.644 114.172C273.108 111.289 276.572 108.406 280.614 106.099C285.811 102.639 291.007 99.7563 296.781 97.4498C301.978 95.1433 307.752 93.4135 313.526 92.2602C319.3 91.1069 325.074 90.5303 330.848 91.1069C336.622 91.1069 342.973 91.6836 348.747 92.2602L353.366 92.8368H354.521H355.098C355.676 92.8368 354.521 92.8368 354.521 92.8368H355.098L357.408 93.4135L362.027 94.5667C363.182 95.1433 364.337 95.1433 366.069 95.72C370.688 97.4498 376.462 99.7563 381.081 102.639C383.968 104.369 386.278 105.523 388.587 107.252C390.897 108.982 392.629 110.136 394.939 111.865C398.98 115.325 403.022 119.362 407.064 123.398C410.528 127.434 413.993 132.047 416.88 137.237C418.612 139.544 419.767 141.85 420.921 144.733C422.076 147.04 423.231 149.923 424.386 152.229C426.695 157.419 428.428 162.609 430.16 168.375C431.315 174.141 433.047 179.331 433.624 185.097C434.779 190.287 434.779 196.053 435.356 201.243L434.779 224.308C433.624 230.651 433.047 237.57 431.314 243.913C430.737 247.373 429.582 250.256 428.427 253.716C427.273 256.599 426.695 260.058 425.541 262.942C423.231 269.284 420.921 275.627 417.457 281.394C414.57 287.737 411.106 293.503 407.641 299.269C404.177 305.035 400.135 310.802 396.671 316.568C392.629 322.334 388.587 327.524 384.545 333.29L371.265 349.435L356.83 365.004L341.818 379.997C336.622 385.186 331.425 389.799 326.229 394.989C321.032 400.179 315.835 404.792 310.061 409.405C304.865 414.018 299.091 418.631 293.894 423.244L277.15 437.083L259.828 450.345C252.899 455.535 245.971 460.724 239.042 465.914C222.875 453.805 207.285 441.119 191.695 429.01C183.612 422.667 176.106 416.324 168.6 409.405C157.052 399.602 145.504 389.799 134.533 379.42C116.634 362.121 99.312 343.669 84.8772 324.064C70.4423 304.459 57.7396 283.124 47.9238 260.635C45.6143 254.869 43.3047 249.103 41.5725 243.913C40.9951 241.606 40.4177 239.877 39.8403 238.147C38.6855 234.11 37.5307 230.074 36.3759 226.037C33.4889 214.505 31.1794 202.396 29.4472 190.287C28.2924 178.178 27.715 166.068 28.2924 153.383C28.8698 141.273 30.602 129.164 33.4889 117.055C38.6855 92.8368 49.0786 69.7718 64.0909 49.5899C79.1032 29.4079 98.7346 12.1092 121.83 0C116.057 1.72988 109.705 4.03638 103.931 6.91952C85.4545 14.9923 68.7101 27.1014 54.8526 42.0937C35.7985 61.1224 21.941 85.9173 12.7027 111.289C8.08354 123.975 5.19656 137.814 2.88698 151.076C1.15479 164.915 0 178.178 0 192.017C0 205.856 1.73219 219.695 4.04177 232.957C4.61917 236.993 5.77396 241.606 6.92875 245.643C6.92875 245.643 24.828 353.472 168.6 467.644C187.076 483.213 206.13 497.628 224.607 512.044L238.464 523L241.351 520.694L251.744 513.197C263.87 504.548 275.995 495.899 288.12 486.096L306.02 472.257L323.342 457.841C329.115 453.228 334.889 448.039 340.663 442.849C346.437 437.659 352.211 433.046 357.408 427.28C362.604 422.09 368.378 416.901 373.575 411.135L389.165 394.412L404.177 376.537L418.034 358.085C422.654 351.742 426.695 345.399 431.314 338.48C435.356 331.56 439.398 325.217 442.862 318.298C446.327 311.378 450.369 304.459 453.256 296.963C456.72 289.466 459.029 281.97 461.916 274.474C463.071 270.438 464.226 266.401 464.803 262.942C465.958 258.905 466.536 254.869 467.113 250.832C468.845 242.76 469.423 234.687 470 226.614V224.884Z" fill="#04659A"/>
<path d="M280.534 245.497L357 321.638L315.469 363L239.003 286.853L162.531 363L121 321.638L197.472 245.497L121 169.352L162.531 128L239.003 204.147L315.469 128L357 169.352L280.534 245.497Z" fill="#009E4B"/>
</svg>
