<svg width="36" height="40" viewBox="0 0 36 40" fill="none" xmlns="http://www.w3.org/2000/svg">
<path d="M35.3568 29.3931L30.6426 24.1613C29.9144 23.3532 28.714 23.2101 27.8569 23.8752L23.9998 26.8236C23.5712 26.872 21.343 26.9667 17.486 22.6862L15.6009 20.5943C11.7003 16.2654 11.8292 13.7926 11.8727 13.3655L14.5295 9.03662C15.1288 8.0854 15.0016 6.75331 14.2717 5.94515L9.55746 0.713418C9.12889 0.237806 8.61495 0 8.01393 0C7.41462 0 6.89896 0.237806 6.4704 0.713418L3.47042 4.0427C1.24221 6.56382 0 9.8932 0 13.3656C0 16.8844 1.24216 20.1674 3.47209 22.6401L15.601 36.1004C17.8292 38.6215 20.8291 40 24.0001 40C27.1711 40 30.129 38.6215 32.3572 36.1468L35.3571 32.8175C36.2143 31.8663 36.2143 30.3447 35.3571 29.3935L35.3568 29.3931ZM34.1565 31.4869L31.1565 34.8161C29.228 36.9081 26.7003 38.0971 23.9999 38.0971C21.2994 38.0971 18.728 36.9081 16.8432 34.8161L4.67099 21.3559C2.78598 19.2156 1.71456 16.4085 1.71456 13.3651C1.71456 10.3684 2.78598 7.5146 4.67099 5.42286L7.67097 2.09358C7.75635 1.99883 7.88526 1.95052 8.01416 1.95052C8.14306 1.95052 8.27197 1.99883 8.35735 2.09358L13.0716 7.32531C13.2424 7.51481 13.2424 7.80092 13.1151 7.9904L10.373 12.4604C10.3294 12.5087 10.2876 12.6034 10.2876 12.6499C10.1587 12.9825 9.25972 16.2653 14.4025 21.9728L16.2876 24.0648C21.4304 29.7721 24.3866 28.7726 24.6883 28.6314C24.7737 28.5831 24.8173 28.5831 24.8591 28.5367L28.887 25.4935C29.0577 25.3504 29.3155 25.3987 29.4863 25.5418L34.2005 30.7735C34.3294 30.963 34.3294 31.2491 34.157 31.4869L34.1565 31.4869Z" fill="white"/>
</svg>
