<svg width="38" height="39" viewBox="0 0 38 39" fill="none" xmlns="http://www.w3.org/2000/svg">
<path d="M18.788 0.0087373C18.1808 -0.0852776 17.6789 0.598926 18.0653 1.12297C25.0733 10.5922 18.0928 24.4783 6.37083 24.3776C4.48729 24.3776 2.66411 24.0224 0.952825 23.3225C0.456064 23.0997 -0.123491 23.6028 0.0231085 24.1321C2.12915 32.886 9.84441 39 18.7861 39C44.4071 37.9293 44.4022 1.0776 18.7861 0.0106094L18.788 0.0087373ZM18.788 37.6053C10.9241 37.6053 4.08162 32.5146 1.71881 25.0719C11.6677 28.3032 22.407 20.3364 22.2379 9.75653C22.2379 6.78464 21.4462 3.9362 19.9352 1.43808C42.8551 3.73443 41.8841 36.7576 18.7899 37.6053H18.788Z" fill="white"/>
</svg>
