<svg width="24" height="17" viewBox="0 0 24 17" fill="none" xmlns="http://www.w3.org/2000/svg">
<path d="M20.9638 0.300781H2.8553C1.29176 0.300781 0.0195312 1.57301 0.0195312 3.13655V13.7038C0.0195312 15.2673 1.29176 16.5395 2.8553 16.5395H20.9638C22.5273 16.5395 23.7995 15.2673 23.7995 13.7038V3.13952C23.7995 1.57598 22.5273 0.300781 20.9638 0.300781ZM22.6432 13.7038C22.6432 14.6312 21.8882 15.3832 20.9638 15.3832H2.8553C1.92788 15.3832 1.17583 14.6282 1.17583 13.7038V3.13952C1.17583 2.2121 1.93085 1.46006 2.8553 1.46006H20.9638C21.8882 1.46006 22.6432 2.2121 22.6432 3.13952V13.7038Z" fill="white"/>
<path d="M20.7255 13.1989L14.8043 8.41914L20.7195 3.64234C20.9663 3.44021 21.0079 3.07756 20.8058 2.82787C20.6036 2.57818 20.241 2.53954 19.9913 2.74167L11.912 9.26631L3.82981 2.7387C3.58309 2.53954 3.21747 2.57818 3.01534 2.8249C2.81618 3.07459 2.85483 3.43723 3.10154 3.63936L9.01979 8.41914L3.09857 13.1989C2.84888 13.4011 2.81024 13.7637 3.01237 14.0134C3.1283 14.1561 3.29476 14.2274 3.46419 14.2274C3.59201 14.2274 3.71982 14.1858 3.82683 14.0996L9.94127 9.16227L11.5494 10.4613C11.6564 10.5475 11.7842 10.5891 11.912 10.5891C12.0399 10.5891 12.1677 10.5475 12.2747 10.4613L13.8828 9.16227L20.0002 14.0996C20.1072 14.1858 20.235 14.2274 20.3629 14.2274C20.5323 14.2274 20.6987 14.1531 20.8147 14.0134C21.0138 13.7637 20.9752 13.3981 20.7255 13.1989Z" fill="white"/>
</svg>
