<svg width="31" height="31" viewBox="0 0 31 31" fill="none" xmlns="http://www.w3.org/2000/svg">
<path d="M9.57075 2.83366C8.8273 4.18492 8.21482 5.78148 7.7532 7.53779C6.59076 7.3108 5.53651 7.03813 4.60718 6.73342C5.93565 5.08355 7.63132 3.74293 9.56935 2.83346L9.57075 2.83366ZM21.4296 2.83366L21.4311 2.83518C23.3705 3.74313 25.0646 5.08374 26.3933 6.7321L26.3917 6.73362C25.4609 7.03831 24.4081 7.31101 23.2457 7.53799C22.7841 5.78301 22.1716 4.18644 21.4297 2.83503L21.4296 2.83366ZM16.2587 1.53723H16.2603C17.2109 1.58903 18.1326 1.73528 19.0224 1.96685H19.0239C20.133 3.33488 21.0943 5.32905 21.7585 7.79261L21.757 7.79414C20.0964 8.04093 18.256 8.1963 16.2617 8.22832L16.2587 1.53723ZM14.7383 8.228V8.22953C12.7425 8.19601 10.9021 8.04063 9.24298 7.79382L9.23993 7.7923C9.90417 5.32893 10.8655 3.33621 11.9746 1.96654C12.8643 1.73346 13.7876 1.58873 14.7367 1.53692L14.7383 8.228ZM3.6837 8.01929L3.68522 8.02082C4.80804 8.41386 6.06342 8.74294 7.41018 9.00798C7.03997 10.8163 6.82212 12.7556 6.77641 14.7405L1.53538 14.739C1.66792 12.2741 2.43748 9.98292 3.6837 8.01929ZM8.89235 9.26545H8.89388C10.748 9.5488 12.7316 9.7118 14.7426 9.74534L14.741 14.7408H8.29524C8.33942 12.768 8.54814 10.9292 8.89091 9.26564L8.89235 9.26545ZM22.1073 9.26393V9.26545C22.45 10.929 22.6603 12.7678 22.7029 14.7406H16.2587L16.2557 9.74514C18.2666 9.71163 20.2502 9.54862 22.1043 9.26525L22.1073 9.26393ZM27.3147 8.01929H27.3163C28.561 9.983 29.3319 12.2788 29.4629 14.742L24.2218 14.7405C24.1777 12.7555 23.9598 10.8164 23.5881 9.00797C24.9348 8.74289 26.1919 8.41237 27.3147 8.01929ZM14.7383 21.255V21.2565C12.7288 21.2885 10.7453 21.4515 8.89275 21.7349C8.54996 20.0713 8.33666 18.2325 8.29399 16.2597L14.7413 16.2582L14.7383 21.255ZM22.7063 16.2595C22.6621 18.2324 22.4504 20.0711 22.1076 21.7347C20.2535 21.4513 18.2714 21.2883 16.2605 21.2548L16.2589 16.2593L22.7063 16.2595ZM6.77964 16.2641C6.82382 18.2476 7.04016 20.1824 7.4119 21.9935H7.41037C6.06513 22.2571 4.80671 22.5876 3.68389 22.9807C2.43767 21.017 1.66981 18.7274 1.5388 16.2622L6.77964 16.2641ZM29.4629 16.2595C29.3319 18.7229 28.561 21.0186 27.3148 22.9807C26.192 22.5862 24.9336 22.2571 23.5883 21.9936C23.9601 20.1822 24.1749 18.2474 24.2191 16.2626L29.4629 16.2595ZM23.2457 23.4624C24.4097 23.6893 25.4609 23.9636 26.3917 24.2698C25.0633 25.9181 23.3676 27.2587 21.428 28.1667V28.1682C22.1714 26.8139 22.7841 25.2172 23.2457 23.4624ZM7.75468 23.4624C8.21478 25.2173 8.82874 26.8154 9.57067 28.168C7.63124 27.2586 5.93561 25.918 4.60694 24.2681C5.53779 23.9619 6.59052 23.6892 7.75296 23.4622L7.75468 23.4624ZM16.2617 22.7723H16.2632C18.259 22.8027 20.0994 22.9596 21.7601 23.2064V23.2095C21.0959 25.6729 20.1315 27.6671 19.0224 29.0352L19.0209 29.0368C18.1312 29.2668 17.2079 29.4115 16.2588 29.4633L16.2617 22.7723ZM14.7397 29.463C13.7921 29.4112 12.8674 29.268 11.9777 29.0364H11.9761C10.867 27.6669 9.90265 25.6727 9.23841 23.2095V23.2065C10.899 22.9597 12.7425 22.8043 14.7384 22.7723L14.7397 29.463ZM15.4984 0C6.93799 0 0 6.9392 0 15.4992C0 24.0592 6.93799 31 15.4984 31C24.0589 30.9985 31 24.0592 31 15.4992C31 6.9392 24.0605 0 15.5 0H15.4984Z" fill="url(#paint0_linear_709_1422)"/>
<defs>
<linearGradient id="paint0_linear_709_1422" x1="0" y1="15.5" x2="31" y2="15.5" gradientUnits="userSpaceOnUse">
<stop stop-color="#1A6B9E"/>
<stop offset="1" stop-color="#2491A8"/>
</linearGradient>
</defs>
</svg>
