<svg width="19" height="19" viewBox="0 0 19 19" fill="none" xmlns="http://www.w3.org/2000/svg">
<path d="M18.3528 16.6044C18.5566 16.4198 18.7195 16.1948 18.831 15.9438C18.9424 15.6929 19 15.4215 19 15.1472C19 14.8727 18.9424 14.6014 18.831 14.3504C18.7195 14.0995 18.5566 13.8745 18.3528 13.6899L15.9914 11.3403C15.8082 11.1367 15.5844 10.9734 15.3342 10.8608C15.084 10.7483 14.8129 10.689 14.5384 10.6868C14.2647 10.6935 13.995 10.7548 13.7455 10.8671C13.4959 10.9793 13.2715 11.1402 13.0854 11.3403L11.7233 12.6939C11.6099 12.6262 11.4964 12.5809 11.3825 12.5133C11.2236 12.4456 11.0872 12.355 10.9513 12.2873C9.60953 11.4265 8.42035 10.35 7.43221 9.10174C6.96218 8.54924 6.57202 7.93401 6.27308 7.27392C6.61383 6.95746 6.95412 6.62046 7.27191 6.3026L7.63516 5.94133C8.04862 5.56107 8.29356 5.03293 8.3162 4.47292C8.30791 4.19511 8.24327 3.92182 8.12624 3.66949C8.0092 3.41712 7.84219 3.19098 7.63516 3.00451L6.47744 1.82968C6.34104 1.69432 6.20511 1.5585 6.09168 1.42314C5.84186 1.15195 5.56954 0.880768 5.29487 0.632454C5.11052 0.43777 4.8891 0.281547 4.6435 0.17298C4.39789 0.0644122 4.13302 0.00560107 3.86435 0C3.316 0.0153096 2.79507 0.242059 2.41133 0.632454L0.935351 2.10087C0.396564 2.62233 0.0658384 3.32064 0.0044836 4.06638C-0.0320762 5.14691 0.155269 6.22335 0.554755 7.22865C1.31759 9.21941 2.42399 11.062 3.82404 12.6734C5.6592 14.8659 7.94151 16.6448 10.5196 17.8921C11.691 18.5029 12.9714 18.8791 14.2881 18.9993H14.5604C15.0219 19.009 15.4801 18.9191 15.9034 18.7358C16.3267 18.5525 16.7052 18.2802 17.0127 17.9374L17.0352 17.915C17.2676 17.6424 17.5182 17.3857 17.7852 17.1467C17.9908 16.9837 18.1808 16.8022 18.3528 16.6044ZM17.0132 16.3561C16.7237 16.6256 16.4507 16.9122 16.1958 17.2144C15.9946 17.4397 15.7456 17.6174 15.4667 17.7346C15.1879 17.8519 14.8863 17.9057 14.5839 17.8921H14.3818C13.2107 17.7516 12.0734 17.4075 11.0216 16.8756C8.5897 15.6988 6.43731 14.0198 4.70757 11.9503C3.39348 10.4362 2.34914 8.70934 1.61967 6.84451C1.25516 6.00467 1.09195 5.09188 1.14299 4.1784C1.18635 3.70119 1.39497 3.25385 1.7331 2.91302L3.18612 1.46608C3.26927 1.37296 3.37 1.29707 3.48258 1.24278C3.59521 1.18845 3.71746 1.15681 3.84232 1.14962C4.09435 1.16516 4.33007 1.27882 4.49852 1.46608C4.77084 1.71439 4.99817 1.96317 5.2705 2.23436L5.67921 2.6409L6.83694 3.79332C6.93626 3.87795 7.01758 3.98152 7.07613 4.09788C7.13462 4.21429 7.16917 4.34116 7.1777 4.47105C7.16917 4.60095 7.13462 4.72782 7.07613 4.84418C7.01758 4.96059 6.93626 5.06416 6.83694 5.14878L6.47369 5.51052C6.11043 5.87179 5.77061 6.21065 5.40642 6.54998L5.38392 6.57239C5.2554 6.68996 5.16513 6.84315 5.12468 7.01226C5.08428 7.18136 5.09557 7.35864 5.15707 7.5213C5.15707 7.5437 5.15707 7.54371 5.18003 7.56798C5.52716 8.37813 5.99405 9.13203 6.56509 9.80467C7.63352 11.1482 8.91569 12.3083 10.3607 13.2391C10.5426 13.352 10.724 13.4426 10.8829 13.5326C11.0418 13.6003 11.1782 13.6909 11.3141 13.7586C11.3366 13.7586 11.3366 13.781 11.361 13.781C11.4866 13.8496 11.6265 13.8883 11.7697 13.8939C11.8898 13.889 12.0078 13.8605 12.1169 13.8102C12.2259 13.7598 12.324 13.6885 12.4053 13.6003L13.8813 12.1319C13.9577 12.0335 14.0558 11.9538 14.1679 11.899C14.2801 11.8441 14.4034 11.8156 14.5283 11.8156C14.6533 11.8156 14.7766 11.8441 14.8888 11.899C15.0009 11.9538 15.099 12.0335 15.1754 12.1319L17.5368 14.4816C17.6375 14.5644 17.7182 14.6687 17.7729 14.7868C17.8275 14.905 17.8548 15.0338 17.8526 15.1639C17.8504 15.2939 17.8187 15.4218 17.7601 15.538C17.7015 15.6542 17.6173 15.7558 17.5138 15.8352C17.3591 16.0199 17.1918 16.194 17.0132 16.3561Z" fill="url(#paint0_linear_88_139)"/>
<defs>
<linearGradient id="paint0_linear_88_139" x1="0" y1="9.5" x2="19" y2="9.5" gradientUnits="userSpaceOnUse">
<stop stop-color="#196A9D"/>
<stop offset="1" stop-color="#2491A8"/>
</linearGradient>
</defs>
</svg>
