<svg width="23" height="23" viewBox="0 0 23 23" fill="none" xmlns="http://www.w3.org/2000/svg">
<path d="M5.764 5.75708C5.71496 6.02657 5.69045 6.29606 5.69045 6.56556C5.66593 7.05554 5.66593 7.54553 5.73948 8.06001C5.78852 8.5255 5.8866 8.99098 6.00919 9.52997C6.05823 9.75046 6.13179 9.97095 6.22986 10.2404C6.30342 10.4364 6.40149 10.6814 6.49957 10.9264C6.84283 11.7594 7.33321 12.5924 8.01974 13.5233C8.58368 14.2828 9.24568 15.0423 10.0793 15.8018C10.1284 15.8508 10.1774 15.8998 10.251 15.9488H14.9341V10.4364H10.1774V5.75708H5.764Z" fill="#009E4B"/>
<path d="M3.33457 10.4365H0V15.9244H4.70763V20.6282H10.1753V19.8932C4.07014 15.0424 3.33457 10.4365 3.33457 10.4365Z" fill="#009E4B"/>
<path d="M23.0013 9.55471L22.9768 8.50124V8.45224C22.9278 8.15825 22.9033 7.86426 22.8297 7.57027C22.7807 7.27628 22.6826 7.00679 22.5845 6.7128C22.4865 6.4433 22.3639 6.14931 22.2167 5.90432C22.1432 5.78182 22.0696 5.63483 21.9961 5.51233C21.9225 5.38984 21.849 5.26734 21.7509 5.14484C21.5793 4.89985 21.3831 4.67936 21.1624 4.45886C20.9418 4.23837 20.7211 4.06688 20.4759 3.89538C20.2307 3.72389 19.961 3.57689 19.6913 3.4544C19.3971 3.3319 19.1274 3.2339 18.8086 3.1849C18.7351 3.1604 18.6615 3.1604 18.5879 3.1359L18.3918 3.11141H18.2937H18.2447H18.2202H18.1711H17.9505C17.6807 3.11141 17.3865 3.11141 17.0923 3.1604C16.7981 3.1849 16.5284 3.2584 16.2341 3.3319C16.1361 3.3564 16.038 3.4054 15.9399 3.4544C15.7683 3.52789 15.5966 3.60139 15.4495 3.69939C14.9592 3.99338 14.5423 4.38537 14.1745 4.80185C13.8313 5.21834 13.5125 5.65933 13.1938 6.10031C13.5861 5.70833 13.9539 5.31634 14.3462 4.97335C14.3952 4.92435 14.4443 4.89985 14.4933 4.85085C14.6404 4.72836 14.7875 4.60586 14.9592 4.50786C15.1798 4.36087 15.4005 4.23837 15.6457 4.14037C15.8664 4.04238 16.1115 3.96888 16.3567 3.91988C16.6019 3.87088 16.8471 3.84638 17.0923 3.87088C17.3375 3.87088 17.6072 3.89538 17.8524 3.91988L18.0485 3.94438H18.0976H18.1221C18.1466 3.94438 18.0976 3.94438 18.0976 3.94438H18.1221L18.2202 3.96888L18.4163 4.01788C18.4654 4.04238 18.5144 4.04238 18.5879 4.06688C18.7841 4.14037 19.0293 4.23837 19.2254 4.36087C19.348 4.43437 19.4461 4.48336 19.5442 4.55686C19.6423 4.63036 19.7158 4.67936 19.8139 4.75286C19.9855 4.89985 20.1572 5.07135 20.3288 5.24284C20.4759 5.41434 20.623 5.61033 20.7456 5.83082C20.8192 5.92882 20.8682 6.02682 20.9172 6.14931C20.9663 6.24731 21.0153 6.36981 21.0644 6.4678C21.1624 6.6883 21.236 6.90879 21.3095 7.15378C21.3586 7.39878 21.4321 7.61927 21.4567 7.86426C21.5057 8.08475 21.5057 8.32975 21.5302 8.55024L21.5057 9.53021C21.4567 9.7997 21.4321 10.0937 21.3586 10.3632C21.3341 10.5102 21.285 10.6327 21.236 10.7797C21.1869 10.9022 21.1624 11.0492 21.1134 11.1717C21.0153 11.4412 20.9172 11.7106 20.7701 11.9556C20.6475 12.2251 20.5004 12.4701 20.3533 12.7151C20.2062 12.9601 20.0346 13.2051 19.8874 13.4501C19.7158 13.6951 19.5442 13.9156 19.3726 14.1606L18.8086 14.8465L18.1956 15.508L17.5582 16.145C17.3375 16.3655 17.1168 16.5615 16.8961 16.782C16.6755 17.0025 16.4548 17.1985 16.2096 17.3945C15.9889 17.5905 15.7438 17.7865 15.5231 17.9825L14.812 18.5704L14.0765 19.1339C13.7822 19.3544 13.488 19.5749 13.1938 19.7954C12.5073 19.2809 11.8453 18.7419 11.1832 18.2274C10.84 17.958 10.5212 17.6885 10.2025 17.3945C9.71211 16.978 9.22173 16.5615 8.75587 16.1205C7.99579 15.3855 7.26022 14.6016 6.64725 13.7686C6.03427 12.9356 5.49486 12.0291 5.07804 11.0737C4.97996 10.8287 4.88189 10.5837 4.80833 10.3632C4.78381 10.2652 4.75929 10.1917 4.73477 10.1182C4.68573 9.9467 4.6367 9.7752 4.58766 9.60371C4.46506 9.11372 4.36699 8.59924 4.29343 8.08475C4.24439 7.57027 4.21988 7.05579 4.24439 6.5168C4.26891 6.00232 4.34247 5.48783 4.46506 4.97335C4.68573 3.94438 5.12707 2.96441 5.76457 2.10694C6.40206 1.24946 7.2357 0.514484 8.21646 0C7.97127 0.0734978 7.70156 0.171495 7.45637 0.293991C6.67177 0.636981 5.96072 1.15147 5.37226 1.78845C4.56314 2.59692 3.97469 3.65039 3.58238 4.72836C3.38623 5.26734 3.26364 5.85532 3.16556 6.41881C3.09201 7.00679 3.04297 7.57027 3.04297 8.15825C3.04297 8.74623 3.11653 9.33422 3.2146 9.8977C3.23912 10.0692 3.28816 10.2652 3.3372 10.4367C3.3372 10.4367 4.09728 15.018 10.2025 19.8689C10.9871 20.5304 11.7962 21.1429 12.5808 21.7553L13.1693 22.2208L13.2919 22.1228L13.7332 21.8043C14.2481 21.4368 14.763 21.0694 15.2779 20.6529L16.038 20.0649L16.7735 19.4524C17.0187 19.2564 17.2639 19.0359 17.5091 18.8154C17.7543 18.5949 17.9995 18.3989 18.2202 18.1539C18.4408 17.9335 18.686 17.713 18.9067 17.468L19.5687 16.7575L20.2062 15.998L20.7946 15.214C20.9908 14.9445 21.1624 14.6751 21.3586 14.3811C21.5302 14.0871 21.7018 13.8176 21.849 13.5236C21.9961 13.2296 22.1677 12.9356 22.2903 12.6171C22.4374 12.2986 22.5355 11.9801 22.6581 11.6616C22.7071 11.4902 22.7562 11.3187 22.7807 11.1717C22.8297 11.0002 22.8542 10.8287 22.8788 10.6572C22.9523 10.3142 22.9768 9.9712 23.0013 9.62821V9.55471Z" fill="#04659A"/>
</svg>
