<svg width="41" height="41" viewBox="0 0 41 41" fill="none" xmlns="http://www.w3.org/2000/svg">
<circle cx="20.5" cy="20.5" r="20.5" fill="url(#paint0_linear_250_2063)"/>
<path d="M12.9512 24.7102L12.9511 24.7103L19.6183 32.3339L19.6185 32.3342C19.6613 32.3832 19.7173 32.4251 19.7839 32.4547C19.8506 32.4842 19.9244 32.5 20 32.5C20.0758 32.5 20.1498 32.4841 20.2162 32.4546C20.2827 32.425 20.3388 32.3831 20.3818 32.3339L20.3819 32.3339L27.0489 24.7103L27.0566 24.7014L27.0568 24.7015C28.3566 23.2842 29.1781 21.5407 29.4231 19.6914C29.6678 17.843 29.3259 15.9665 28.4381 14.2971C27.7351 12.994 26.6934 11.8745 25.4056 11.0439C24.1173 10.2129 22.6253 9.69852 21.0665 9.55019L12.9512 24.7102ZM12.9512 24.7102L12.9433 24.7015M12.9512 24.7102L12.9433 24.7015M12.9433 24.7015C11.6434 23.2841 10.8219 21.5404 10.5769 19.6912C10.3322 17.8428 10.6741 15.9661 11.5619 14.2967C12.2652 12.9938 13.3071 11.8744 14.5949 11.0439C15.8833 10.2131 17.3753 9.69867 18.9339 9.5502C19.643 9.48327 20.3573 9.48327 21.0664 9.55019L12.9433 24.7015ZM20.0005 22.4226H20C19.1312 22.4226 18.2797 22.1805 17.5528 21.7237L17.8189 21.3004L17.5528 21.7237C16.8257 21.2668 16.2543 20.6141 15.9155 19.8448C15.5763 19.0749 15.487 18.2258 15.6603 17.4063L15.6603 17.4063C15.8336 16.5873 16.2603 15.8392 16.8814 15.2551L20.0005 22.4226ZM20.0005 22.4226C21.1643 22.4214 22.2857 21.9863 23.1173 21.204C23.9498 20.4209 24.4246 19.3524 24.4259 18.2307V18.2302M20.0005 22.4226L24.4259 18.2302M24.4259 18.2302C24.4259 17.394 24.1621 16.5793 23.6719 15.8893C23.182 15.1996 22.489 14.6667 21.6839 14.353C20.879 14.0395 19.9949 13.9577 19.1422 14.1173L24.4259 18.2302ZM19.1421 14.1173C18.2893 14.2768 17.5021 14.6713 16.8815 15.2551L19.1421 14.1173Z" stroke="white"/>
<defs>
<linearGradient id="paint0_linear_250_2063" x1="20.5" y1="0" x2="20.5" y2="41" gradientUnits="userSpaceOnUse">
<stop stop-color="#18669C"/>
<stop offset="1" stop-color="#2596A9"/>
</linearGradient>
</defs>
</svg>
