<svg width="41" height="41" viewBox="0 0 41 41" fill="none" xmlns="http://www.w3.org/2000/svg">
<circle cx="20.5" cy="20.5" r="20.5" fill="url(#paint0_linear_1_6071)"/>
<path d="M19.2664 32.2286C19.5545 32.6319 20.0155 32.8624 20.4476 32.8624C20.9086 32.8624 21.3408 32.6607 21.6289 32.2286C23.4728 29.5491 26.9302 24.4783 28.1403 22.692C29.2639 21.021 29.8689 18.9466 29.6961 16.7281C29.3503 12.2047 25.6625 8.54569 21.1391 8.22876C20.9086 8.19995 20.7069 8.19995 20.4765 8.19995C15.348 8.19995 11.1992 12.3488 11.1992 17.4772C11.1992 19.4075 11.7754 21.1938 12.7838 22.6632C13.9651 24.4783 17.4225 29.5203 19.2664 32.2286ZM20.4765 8.77618C20.6781 8.77618 20.9086 8.77618 21.1103 8.80499C25.3744 9.0931 28.8317 12.5216 29.1487 16.7569C29.3215 18.7737 28.8029 20.7041 27.6793 22.3463C26.498 24.1038 23.0983 29.0593 21.1679 31.8828C20.9951 32.1133 20.7358 32.2574 20.4476 32.2574C20.1595 32.2574 19.9002 32.1133 19.7274 31.8828C17.8258 29.0881 14.4261 24.1326 13.2448 22.3751C12.2652 20.9345 11.7466 19.2635 11.7466 17.506C11.7466 12.6945 15.665 8.77618 20.4765 8.77618Z" fill="white"/>
<path fill-rule="evenodd" clip-rule="evenodd" d="M19.1018 32.3412L19.1018 32.3412C18.6991 31.7497 18.2192 31.0465 17.7026 30.2896C15.8567 27.585 13.5435 24.1958 12.6183 22.7744C11.5879 21.2721 11 19.447 11 17.4772C11 12.2384 15.2384 8 20.4772 8L20.4821 8C20.7078 8 20.9187 8 21.1593 8.02968C25.779 8.35605 29.5431 12.0923 29.8963 16.7129C30.0727 18.9777 29.4549 21.0966 28.307 22.8037L28.3066 22.8043C27.0965 24.5906 23.6397 29.6606 21.7953 32.3408C21.4678 32.8311 20.9717 33.0625 20.4484 33.0625C19.9489 33.0625 19.4285 32.7985 19.1044 32.3449L19.1018 32.3412ZM21.6297 32.2286C23.4736 29.5492 26.931 24.4784 28.141 22.6921C29.2647 21.021 29.8697 18.9466 29.6968 16.7281C29.3511 12.2048 25.6633 8.54574 21.1399 8.22881C20.9094 8.2 20.7077 8.2 20.4772 8.2C15.3488 8.2 11.2 12.3488 11.2 17.4772C11.2 19.4076 11.7762 21.1939 12.7846 22.6633C13.7075 24.0814 16.0198 27.4692 17.8664 30.1749C18.3834 30.9323 18.8639 31.6363 19.2672 32.2286C19.5553 32.632 20.0163 32.8625 20.4484 32.8625C20.9094 32.8625 21.3416 32.6608 21.6297 32.2286ZM21.0902 9.00408L21.0828 9.00303C20.8978 8.9766 20.6822 8.97623 20.4772 8.97623C15.7762 8.97623 11.9474 12.805 11.9474 17.506C11.9474 19.2233 12.4539 20.8552 13.411 22.2627L13.4116 22.2636C14.1263 23.327 15.6533 25.5613 17.1694 27.7796C18.157 29.2247 19.14 30.663 19.8908 31.7664C20.03 31.95 20.2314 32.0574 20.4484 32.0574C20.6655 32.0574 20.8669 31.95 21.0062 31.7662C21.4936 31.0533 22.0742 30.2051 22.689 29.3071C24.5105 26.6462 26.6317 23.5475 27.5141 22.2348L27.515 22.2334C28.6128 20.629 29.1191 18.7445 28.9502 16.774L28.95 16.7719C28.6405 12.6364 25.2629 9.28602 21.0976 9.00458L21.0902 9.00408ZM21.1111 8.80504C20.9094 8.77623 20.6789 8.77623 20.4772 8.77623C15.6658 8.77623 11.7474 12.6946 11.7474 17.506C11.7474 19.2635 12.266 20.9346 13.2456 22.3752C13.9607 23.4391 15.4887 25.6749 17.0052 27.8939C17.9939 29.3405 18.9777 30.78 19.7281 31.8829C19.901 32.1134 20.1603 32.2574 20.4484 32.2574C20.7365 32.2574 20.9958 32.1134 21.1687 31.8829C21.6564 31.1696 22.2378 30.3202 22.8536 29.4207C24.6752 26.7596 26.7972 23.6598 27.6801 22.3463C28.8037 20.7041 29.3223 18.7737 29.1494 16.757C28.8325 12.5217 25.3752 9.09315 21.1111 8.80504Z" fill="white"/>
<path d="M20.4746 22.8073C23.4134 22.8073 25.8047 20.4159 25.8047 17.4772C25.8047 14.5384 23.4134 12.1471 20.4746 12.1471C17.5359 12.1471 15.1445 14.5384 15.1445 17.4772C15.1445 20.4159 17.5071 22.8073 20.4746 22.8073ZM20.4746 12.7233C23.0964 12.7233 25.2285 14.8554 25.2285 17.4772C25.2285 20.099 23.0964 22.231 20.4746 22.231C17.8528 22.231 15.7208 20.099 15.7208 17.4772C15.7208 14.8554 17.8528 12.7233 20.4746 12.7233Z" fill="white"/>
<path fill-rule="evenodd" clip-rule="evenodd" d="M26.0055 17.4772C26.0055 20.5264 23.5246 23.0073 20.4754 23.0073C17.3967 23.0073 14.9453 20.5257 14.9453 17.4772C14.9453 14.428 17.4262 11.9471 20.4754 11.9471C23.5246 11.9471 26.0055 14.428 26.0055 17.4772ZM25.0293 17.4772C25.0293 14.9659 22.9868 12.9234 20.4754 12.9234C17.964 12.9234 15.9215 14.9659 15.9215 17.4772C15.9215 19.9886 17.964 22.0311 20.4754 22.0311C22.9868 22.0311 25.0293 19.9886 25.0293 17.4772ZM25.8055 17.4772C25.8055 20.416 23.4142 22.8073 20.4754 22.8073C17.5078 22.8073 15.1453 20.416 15.1453 17.4772C15.1453 14.5385 17.5366 12.1471 20.4754 12.1471C23.4142 12.1471 25.8055 14.5385 25.8055 17.4772ZM25.2293 17.4772C25.2293 14.8554 23.0972 12.7234 20.4754 12.7234C17.8536 12.7234 15.7215 14.8554 15.7215 17.4772C15.7215 20.0991 17.8536 22.2311 20.4754 22.2311C23.0972 22.2311 25.2293 20.0991 25.2293 17.4772Z" fill="white"/>
<defs>
<linearGradient id="paint0_linear_1_6071" x1="20.5" y1="0" x2="20.5" y2="41" gradientUnits="userSpaceOnUse">
<stop stop-color="#18669C"/>
<stop offset="1" stop-color="#2596A9"/>
</linearGradient>
</defs>
</svg>
