<svg width="30" height="30" viewBox="0 0 30 30" fill="none" xmlns="http://www.w3.org/2000/svg">
<g clip-path="url(#clip0_65_415)">
<path d="M15 30C23.2843 30 30 23.2843 30 15C30 6.71573 23.2843 0 15 0C6.71573 0 0 6.71573 0 15C0 23.2843 6.71573 30 15 30Z" fill="#F4DD01"/>
<path d="M16.3623 22.307H10.2773V7.62598H12.5833V20H16.3583L16.3623 22.307Z" fill="black"/>
<path d="M19.7213 21.1959C19.7231 21.4691 19.6301 21.7344 19.4581 21.9467C19.2861 22.1589 19.0457 22.3049 18.7781 22.3597C18.5105 22.4145 18.2321 22.3748 17.9905 22.2472C17.7489 22.1197 17.559 21.9123 17.4533 21.6604C17.3476 21.4085 17.3325 21.1277 17.4107 20.866C17.4889 20.6042 17.6555 20.3777 17.882 20.2251C18.1086 20.0724 18.3811 20.0031 18.6531 20.029C18.925 20.0549 19.1796 20.1743 19.3733 20.3669C19.4849 20.474 19.5733 20.6028 19.6331 20.7454C19.693 20.8879 19.723 21.0413 19.7213 21.1959Z" fill="black"/>
</g>
<defs>
<clipPath id="clip0_65_415">
<rect width="30" height="30" fill="white"/>
</clipPath>
</defs>
</svg>
