<svg width="363" height="110" viewBox="0 0 363 110" fill="none" xmlns="http://www.w3.org/2000/svg">
<g clip-path="url(#clip0_357_61)">
<path d="M150.463 78.5017C148.16 78.5017 145.977 78.6228 145.977 78.6228V77.7748C146.462 77.7748 147.311 77.5325 147.917 76.8057C148.523 76.0788 148.523 74.7462 148.523 73.8982C148.523 73.6559 147.917 55.7264 147.917 55.7264C147.917 55.7264 147.675 56.6955 147.19 57.907L139.43 78.744H137.369L129.731 57.907C129.246 56.6955 129.003 55.8475 129.003 55.7264C129.003 55.8475 128.397 73.0502 128.397 73.8982C128.397 74.7462 128.397 75.9576 128.761 76.6845C128.882 76.8057 129.367 77.6537 130.822 77.7748V78.6228C130.822 78.6228 129.003 78.5017 126.942 78.5017C124.881 78.5017 123.184 78.6228 123.184 78.6228V77.7748C123.669 77.7748 124.517 77.5325 125.123 76.9268C125.73 76.1999 125.851 74.9885 125.972 71.7176L126.578 58.5127C126.578 57.907 126.7 55.9687 126.7 55.4841C126.7 54.3938 126.578 53.9092 126.336 53.5458C126.093 53.1823 125.487 52.5766 124.275 52.4554V51.6074C124.275 51.6074 126.215 51.7286 128.276 51.7286C130.216 51.7286 131.549 51.6074 131.549 51.6074L138.824 71.4753C139.188 72.4444 139.43 73.4136 139.43 73.4136C139.43 73.4136 139.794 72.3233 140.036 71.4753L147.432 51.6074C147.432 51.6074 148.766 51.7286 150.463 51.7286C153.009 51.7286 154.343 51.6074 154.343 51.6074V52.4554C153.615 52.5766 152.888 52.6977 152.403 53.3035C151.918 53.9092 151.797 54.5149 151.797 55.7264C151.797 56.3321 151.797 57.4224 151.918 58.2704L152.524 72.3233C152.646 74.8673 152.646 75.9576 153.13 76.6845C153.252 76.8057 153.737 77.6537 155.07 77.7748V78.6228C154.949 78.6228 152.888 78.5017 150.463 78.5017Z" fill="#04659A"/>
<path d="M173.135 77.6533V78.5013H163.921C161.132 78.5013 158.465 78.6224 158.465 78.6224V77.7744C158.95 77.7744 159.799 77.5321 160.283 77.0475C160.89 76.4418 160.89 75.5938 160.89 72.6863V62.1466C160.89 59.8449 160.768 59.2392 160.283 58.7546C159.92 58.3911 159.192 58.1489 158.586 58.0277V57.1797C158.586 57.1797 160.647 57.3008 162.587 57.3008H173.014V58.27C173.014 60.3295 173.135 61.4198 173.135 61.4198H172.165C172.165 60.3295 171.802 58.8757 168.407 58.8757H164.769V66.7502H167.922C170.953 66.7502 171.074 65.4176 171.074 64.4484H172.044C172.044 64.4484 171.923 65.6599 171.923 67.477C171.923 69.4154 172.044 70.5057 172.044 70.5057H171.074C171.074 69.5365 170.953 68.2039 167.922 68.2039H164.769V75.3515C164.769 76.9264 165.133 76.9264 167.558 76.9264H168.528C171.68 76.9264 172.165 75.4726 172.165 74.0189H173.256C173.256 74.14 173.135 75.5938 173.135 77.6533Z" fill="#04659A"/>
<path d="M186.835 58.7546C185.259 58.7546 184.41 58.8757 184.168 58.8757V75.3515C184.168 77.0475 185.138 77.0475 186.956 77.0475C192.534 77.0475 194.595 73.7766 194.595 67.7193C194.595 60.2083 190.594 58.7546 186.835 58.7546ZM191.442 78.1378C190.109 78.5013 187.926 78.6224 185.865 78.6224C184.047 78.6224 182.834 78.5013 181.258 78.5013C179.682 78.5013 177.863 78.6224 177.863 78.6224V77.7744C178.348 77.7744 179.197 77.5321 179.682 77.0475C180.288 76.4418 180.288 75.5938 180.288 72.6863V62.1466C180.288 59.8449 180.167 59.2392 179.682 58.7546C179.318 58.3911 178.591 58.1489 177.985 58.0277V57.1797C177.985 57.1797 179.439 57.3008 181.379 57.3008C182.834 57.3008 184.653 57.1797 186.472 57.1797C189.988 57.1797 198.838 57.422 198.838 67.3559C198.959 73.8977 195.565 76.9264 191.442 78.1378Z" fill="#04659A"/>
<path d="M206.842 76.6844H215.693C217.39 76.6844 218.36 76.5633 219.087 75.8364C220.057 74.8672 220.179 73.0501 220.179 73.0501H221.27C221.27 73.0501 221.148 74.7461 221.148 77.7747V78.6227H201.992V77.2901L216.541 53.6668H208.782C207.327 53.6668 206.114 53.6668 205.266 54.3937C204.175 55.3628 204.175 56.8166 204.175 56.9377H203.205C203.205 56.9377 203.326 54.9994 203.326 53.4245V51.8496H221.27V53.0611L206.842 76.6844Z" fill="#04659A"/>
<path d="M239.334 77.6533V78.5013H230.12C227.331 78.5013 224.664 78.6224 224.664 78.6224V77.7744C225.149 77.7744 225.998 77.5321 226.483 77.0475C227.089 76.4418 227.089 75.5938 227.089 72.6863V62.1466C227.089 59.8449 226.968 59.2392 226.483 58.7546C226.119 58.3911 225.392 58.1489 224.785 58.0277V57.1797C224.785 57.1797 226.846 57.3008 228.786 57.3008H239.213V58.27C239.213 60.3295 239.334 61.4198 239.334 61.4198H238.364C238.364 60.3295 238.001 58.8757 234.606 58.8757H230.969V66.7502H234.121C237.152 66.7502 237.273 65.4176 237.273 64.4484H238.243C238.243 64.4484 238.122 65.6599 238.122 67.477C238.122 69.4154 238.243 70.5057 238.243 70.5057H237.273C237.273 69.5365 237.152 68.2039 234.121 68.2039H230.969V75.3515C230.969 76.9264 231.332 76.9264 233.757 76.9264H234.727C237.879 76.9264 238.364 75.4726 238.364 74.0189H239.456C239.456 74.14 239.334 75.5938 239.334 77.6533Z" fill="#04659A"/>
<path d="M264.552 58.8757C263.946 59.4814 263.946 60.3295 263.946 63.237V78.7436H261.279L249.518 62.6312C248.912 61.9044 248.67 61.2986 248.67 61.1775V73.6555C248.67 75.9572 248.791 76.5629 249.276 77.0475C249.64 77.411 250.367 77.6532 250.852 77.7744V78.6224C250.852 78.6224 249.276 78.5013 247.457 78.5013C245.517 78.5013 244.062 78.6224 244.062 78.6224V77.7744C244.547 77.7744 245.275 77.5321 245.76 77.0475C246.366 76.4418 246.366 75.5938 246.366 72.6863V62.1466C246.366 59.8449 246.245 59.2392 245.76 58.7546C245.396 58.3911 244.669 58.1489 244.184 58.0277V57.1797C244.184 57.1797 245.881 57.3008 247.821 57.3008C249.397 57.3008 250.367 57.1797 250.367 57.1797L260.551 70.8691C261.4 71.9594 261.643 72.5651 261.643 72.6863V62.1466C261.643 59.8449 261.521 59.2392 261.036 58.7546C260.673 58.3911 259.945 58.1489 259.46 58.0277V57.1797C259.46 57.1797 261.158 57.3008 262.976 57.3008C265.159 57.3008 266.25 57.1797 266.25 57.1797V58.0277C265.765 58.0277 265.037 58.27 264.552 58.8757Z" fill="#04659A"/>
<path d="M285.528 61.5409C285.528 60.3295 285.286 58.8757 281.891 58.8757H279.587V73.6555C279.587 76.0784 279.709 76.6841 280.315 77.1687C280.8 77.6533 281.77 77.7744 282.497 77.8955V78.7436C282.497 78.7436 279.83 78.6224 277.648 78.6224C275.101 78.6224 272.798 78.7436 272.798 78.7436V77.8955C273.404 77.8955 274.495 77.7744 274.98 77.1687C275.586 76.4418 275.708 75.3515 275.708 72.8074V58.7546H273.525C270.009 58.7546 269.888 60.2083 269.767 61.4198H268.797C268.797 61.4198 268.918 60.2083 268.918 58.1488V57.1797H286.377V58.1488C286.377 60.2083 286.498 61.4198 286.498 61.4198H285.528V61.5409Z" fill="#04659A"/>
<path d="M297.166 58.6334C296.317 58.6334 295.59 58.7546 295.59 58.7546V68.0828C295.59 68.0828 296.317 68.2039 297.529 68.2039C297.893 68.2039 298.378 68.2039 298.621 68.0828C299.954 67.8405 301.652 66.8713 301.652 63.237C301.773 58.8757 298.984 58.6334 297.166 58.6334ZM307.229 78.7436C304.562 78.7436 303.834 77.8955 302.258 76.0784C301.046 74.5035 297.772 70.1422 297.287 69.5365H295.711V73.6555C295.711 75.9572 295.832 76.5629 296.317 77.0475C296.681 77.411 297.287 77.6532 297.893 77.7744V78.6224C297.893 78.6224 295.711 78.5013 293.771 78.5013C291.952 78.5013 289.406 78.6224 289.406 78.6224V77.7744C289.891 77.7744 290.619 77.5321 291.104 77.0475C291.71 76.4418 291.71 75.5938 291.71 72.6863V62.1466C291.71 59.8449 291.589 59.2392 291.104 58.7546C290.74 58.3911 290.012 58.1489 289.406 58.0277V57.1797C289.406 57.1797 291.225 57.3008 292.68 57.3008C294.62 57.3008 295.832 57.1797 297.045 57.1797C304.198 57.1797 306.016 59.4814 306.016 62.7524C306.016 66.2656 302.379 68.2039 301.046 68.5673C301.046 68.5673 304.44 72.6863 306.38 74.9881C307.835 76.5629 308.926 77.6532 310.502 77.7744V78.6224C310.502 78.5013 309.411 78.7436 307.229 78.7436Z" fill="#04659A"/>
<path d="M331.115 58.8757C330.509 59.4814 330.509 60.3295 330.509 63.237V69.5365C330.509 71.8383 330.388 73.5343 329.903 74.7458C328.69 77.8955 325.659 78.8647 321.537 78.8647C316.081 78.8647 314.141 76.9264 313.414 74.7458C312.929 73.4132 312.929 71.9594 312.929 69.9V62.1466C312.929 59.8449 312.807 59.2392 312.201 58.7546C311.837 58.3911 311.11 58.1489 310.625 58.0277V57.1797C310.625 57.1797 312.807 57.3008 314.868 57.3008C316.93 57.3008 319.233 57.1797 319.233 57.1797V58.0277C318.748 58.0277 318.021 58.27 317.536 58.7546C316.93 59.3603 316.808 60.2083 316.808 63.1158V70.6268C316.808 74.2612 317.172 77.1687 322.264 77.1687C327.478 77.1687 327.72 74.0189 327.72 70.5057V62.1466C327.72 59.8449 327.599 59.2392 326.993 58.7546C326.629 58.3911 325.902 58.1489 325.417 58.0277V57.1797C325.417 57.1797 327.356 57.3008 329.054 57.3008C331.236 57.3008 332.934 57.1797 332.934 57.1797V58.0277C332.327 58.0277 331.6 58.27 331.115 58.8757Z" fill="#04659A"/>
<path d="M358.88 78.5014C356.819 78.5014 354.758 78.6225 354.758 78.6225V77.7745C355.122 77.7745 355.97 77.6534 356.455 77.0476C356.94 76.563 356.94 75.5939 356.94 74.7459C356.94 74.5036 356.334 60.2084 356.334 60.2084C356.334 60.2084 356.213 61.0564 355.728 62.1467L349.423 78.6225H347.483L341.3 62.1467C340.815 60.9353 340.694 60.2084 340.694 60.2084C340.694 60.3296 340.209 74.2613 340.209 74.6247C340.209 75.4727 340.209 76.3208 340.573 76.8053C340.815 77.0476 341.3 77.5322 342.27 77.6534V78.5014C342.27 78.5014 340.694 78.3802 338.875 78.3802C337.056 78.3802 335.602 78.5014 335.602 78.5014V77.6534C335.965 77.6534 336.814 77.5322 337.299 76.9265C337.905 76.3208 337.905 75.4727 338.026 72.8075L338.633 62.5102C338.633 62.0256 338.633 60.693 338.633 60.3296C338.633 59.6027 338.633 59.1181 338.39 58.7547C338.269 58.5124 337.663 58.0278 336.572 57.9067V57.0586C336.572 57.0586 338.39 57.1798 340.33 57.1798C342.027 57.1798 343.361 57.0586 343.361 57.0586L348.938 71.2327C349.302 72.2018 349.423 73.171 349.423 73.171C349.423 73.0498 349.666 72.0807 350.029 71.2327L355.728 56.9375C355.728 56.9375 357.183 57.0586 358.759 57.0586C360.941 57.0586 362.396 56.9375 362.396 56.9375V57.7855C361.79 57.7855 361.184 57.9067 360.82 58.5124C360.456 58.997 360.335 59.4816 360.335 60.4507C360.335 60.9353 360.335 61.7833 360.456 62.389L360.941 73.2921C361.063 75.4727 361.063 76.1996 361.426 76.6842C361.547 76.8053 361.911 77.4111 363.124 77.5322V78.3802C363.002 78.6225 361.062 78.5014 358.88 78.5014Z" fill="#04659A"/>
<path d="M28.4909 28.4688C28.2484 29.8013 28.1272 31.1339 28.1272 32.4665C28.006 34.8895 28.006 37.3124 28.3697 39.8564C28.6122 42.1582 29.0971 44.4599 29.7034 47.1251C29.9458 48.2154 30.3096 49.3058 30.7945 50.6384C31.1583 51.6075 31.6432 52.819 32.1282 54.0304C33.8256 58.1494 36.2504 62.2683 39.6452 66.8718C42.4338 70.6273 45.7074 74.3828 49.8296 78.1384C50.0721 78.3806 50.3146 78.6229 50.6783 78.8652H73.8356V51.6075H50.3146V28.4688H28.4909Z" fill="#009E4B"/>
<path d="M16.489 51.6074H0V78.744H23.2786V102.004H50.3156V98.3695C20.1263 74.3827 16.489 51.6074 16.489 51.6074Z" fill="#009E4B"/>
<path d="M113.727 47.2467L113.605 42.0374V41.7952C113.363 40.3414 113.242 38.8877 112.878 37.4339C112.635 35.9802 112.15 34.6476 111.665 33.1938C111.18 31.8612 110.574 30.4075 109.847 29.196C109.483 28.5903 109.119 27.8634 108.756 27.2577C108.392 26.652 108.028 26.0463 107.543 25.4405C106.694 24.2291 105.725 23.1388 104.633 22.0485C103.542 20.9582 102.451 20.1101 101.239 19.2621C100.026 18.4141 98.6925 17.6872 97.3588 17.0815C95.9039 16.4758 94.5702 15.9912 92.9941 15.7489C92.6303 15.6278 92.2666 15.6278 91.9029 15.5066L90.933 15.3855H90.448H90.2055H90.0843H89.8418H88.7506C87.4169 15.3855 85.962 15.3855 84.5071 15.6278C83.0522 15.7489 81.7185 16.1123 80.2636 16.4758C79.7786 16.5969 79.2937 16.8392 78.8087 17.0815C77.96 17.4449 77.1113 17.8084 76.3839 18.293C73.959 19.7467 71.8979 21.685 70.0792 23.7445C68.3819 25.804 66.8057 27.9846 65.2295 30.1652C67.1694 28.2269 68.9881 26.2885 70.9279 24.5925C71.1704 24.3502 71.4129 24.2291 71.6554 23.9868C72.3829 23.3811 73.1103 22.7753 73.959 22.2907C75.0502 21.5639 76.1414 20.9582 77.3538 20.4736C78.445 19.989 79.6574 19.6256 80.8698 19.3833C82.0822 19.141 83.2947 19.0198 84.5071 19.141C85.7195 19.141 87.0532 19.2621 88.2656 19.3833L89.2356 19.5044H89.478H89.5993C89.7205 19.5044 89.478 19.5044 89.478 19.5044H89.5993L90.0843 19.6256L91.0542 19.8678C91.2967 19.989 91.5392 19.989 91.9029 20.1101C92.8728 20.4736 94.0853 20.9581 95.0552 21.5639C95.6614 21.9273 96.1464 22.1696 96.6313 22.533C97.1163 22.8965 97.48 23.1388 97.965 23.5022C98.8137 24.2291 99.6624 25.0771 100.511 25.9251C101.239 26.7731 101.966 27.7423 102.572 28.8326C102.936 29.3172 103.178 29.8018 103.421 30.4075C103.663 30.8921 103.906 31.4978 104.148 31.9824C104.633 33.0727 104.997 34.163 105.361 35.3745C105.603 36.5859 105.967 37.6762 106.088 38.8877C106.331 39.978 106.331 41.1894 106.452 42.2797L106.331 47.1256C106.088 48.4582 105.967 49.9119 105.603 51.2445C105.482 51.9714 105.24 52.5771 104.997 53.304C104.755 53.9097 104.633 54.6366 104.391 55.2423C103.906 56.5749 103.421 57.9075 102.693 59.1189C102.087 60.4515 101.36 61.663 100.632 62.8745C99.9049 64.0859 99.0562 65.2974 98.3287 66.5088C97.48 67.7203 96.6313 68.8106 95.7827 70.022L92.9941 73.4141L89.963 76.685L86.8107 79.8348C85.7195 80.9251 84.6283 81.8943 83.5372 82.9846C82.446 84.0749 81.3548 85.0441 80.1424 86.0132C79.0512 86.9824 77.8388 87.9515 76.7476 88.9207L73.2316 91.8282L69.5943 94.6145C68.1394 95.7048 66.6845 96.7952 65.2295 97.8855C61.8348 95.3414 58.5612 92.6762 55.2877 90.1322C53.5903 88.7996 52.0141 87.467 50.438 86.0132C48.0131 83.9538 45.5883 81.8943 43.2847 79.7137C39.5261 76.0793 35.8889 72.2026 32.8578 68.0837C29.8267 63.9648 27.1594 59.4824 25.0983 54.7577C24.6133 53.5463 24.1283 52.3348 23.7646 51.2445C23.6434 50.7599 23.5221 50.3965 23.4009 50.033C23.1584 49.185 22.9159 48.337 22.6734 47.489C22.0672 45.0661 21.5823 42.522 21.2185 39.978C20.976 37.4339 20.8548 34.8899 20.976 32.2247C21.0973 29.6806 21.461 27.1366 22.0672 24.5925C23.1584 19.5044 25.3408 14.6586 28.4931 10.4185C31.6454 6.17841 35.7676 2.54405 40.6173 0C39.4049 0.363436 38.0712 0.848018 36.8588 1.45374C32.979 3.14978 29.463 5.69383 26.5532 8.84361C22.5522 12.8414 19.6424 18.0507 17.7025 23.3811C16.7326 26.0463 16.1263 28.9537 15.6414 31.7401C15.2776 34.6476 15.0352 37.4339 15.0352 40.3414C15.0352 43.2489 15.3989 46.1564 15.8839 48.9427C16.0051 49.7908 16.2476 50.7599 16.4901 51.6079C16.4901 51.6079 20.2486 74.2621 50.438 98.2489C54.3177 101.52 58.3187 104.548 62.1985 107.577L65.1083 109.879L65.7145 109.394L67.8969 107.819C70.443 106.002 72.9891 104.185 75.5352 102.126L79.2937 99.2181L82.9309 96.1894C84.1434 95.2203 85.3558 94.13 86.5682 93.0397C87.7806 91.9493 88.9931 90.9802 90.0843 89.7687C91.1754 88.6784 92.3879 87.5881 93.479 86.3767L96.7526 82.8634L99.9049 79.1079L102.815 75.2313C103.785 73.8987 104.633 72.5661 105.603 71.1123C106.452 69.6586 107.301 68.326 108.028 66.8723C108.756 65.4185 109.604 63.9648 110.211 62.3899C110.938 60.815 111.423 59.2401 112.029 57.6652C112.272 56.8172 112.514 55.9692 112.635 55.2423C112.878 54.3943 112.999 53.5463 113.12 52.6982C113.484 51.0022 113.605 49.3062 113.727 47.6101V47.2467Z" fill="#04659A"/>
</g>
<defs>
<clipPath id="clip0_357_61">
<rect width="363" height="110" fill="white"/>
</clipPath>
</defs>
</svg>
