<svg width="19" height="19" viewBox="0 0 19 19" fill="none" xmlns="http://www.w3.org/2000/svg">
<path d="M0.102556 9.49926C0.102556 9.03617 0.479292 8.65943 0.942384 8.65943L8.65969 8.65943L8.65969 0.94212C8.65969 0.479029 9.03643 0.102294 9.49952 0.102295C9.96261 0.102295 10.3394 0.479029 10.3394 0.942121L10.3394 8.65943L18.0567 8.65943C18.5197 8.65943 18.8965 9.03617 18.8965 9.49926C18.8965 9.96235 18.5197 10.3392 18.0567 10.3392L10.3394 10.3392L10.3394 18.0564C10.3394 18.5195 9.96261 18.8962 9.49952 18.8962C9.03643 18.8962 8.65969 18.5195 8.65969 18.0564L8.65969 10.3392L0.942384 10.3392C0.479291 10.3392 0.102556 9.96235 0.102556 9.49926Z" fill="white"/>
</svg>
