<svg width="37" height="37" viewBox="0 0 37 37" fill="none" xmlns="http://www.w3.org/2000/svg">
<g clip-path="url(#clip0_389_670)">
<path d="M-8.08661e-07 18.5C-1.25527e-06 28.7173 8.28273 37 18.5 37C28.7173 37 37 28.7173 37 18.5C37 8.28273 28.7173 -3.6205e-07 18.5 -8.08661e-07C8.28273 -1.25527e-06 -3.6205e-07 8.28273 -8.08661e-07 18.5Z" fill="#0D659B"/>
<path d="M9.10256 18.4993C9.10256 18.0362 9.47929 17.6594 9.94238 17.6594L17.6597 17.6594L17.6597 9.94212C17.6597 9.47903 18.0364 9.10229 18.4995 9.10229C18.9626 9.10229 19.3394 9.47903 19.3394 9.94212L19.3394 17.6594L27.0567 17.6594C27.5197 17.6594 27.8965 18.0362 27.8965 18.4993C27.8965 18.9624 27.5197 19.3392 27.0567 19.3392L19.3394 19.3392L19.3394 27.0564C19.3394 27.5195 18.9626 27.8962 18.4995 27.8962C18.0364 27.8962 17.6597 27.5195 17.6597 27.0564L17.6597 19.3392L9.94238 19.3392C9.47929 19.3392 9.10256 18.9624 9.10256 18.4993Z" fill="white"/>
</g>
<defs>
<clipPath id="clip0_389_670">
<rect width="37" height="37" fill="white" transform="translate(37) rotate(90)"/>
</clipPath>
</defs>
</svg>
