<svg width="40" height="40" viewBox="0 0 40 40" fill="none" xmlns="http://www.w3.org/2000/svg">
<circle cx="20" cy="20" r="20" fill="#D9D9D9"/>
<circle cx="20" cy="20" r="20" fill="url(#paint0_linear_2489_10501)"/>
<mask id="path-2-inside-1_2489_10501" fill="white">
<path d="M29.0685 16.4684H27.6043C27.5361 17.6312 27.2031 18.7244 26.6673 19.6411C26.4129 20.0773 26.1113 20.4742 25.7704 20.8197C26.4496 20.5623 27.0685 20.1619 27.5825 19.649C28.4348 18.7984 28.9645 17.6757 29.0685 16.4684ZM21.0056 23.2737H20.5581V22.3804H21.9121V23.2737H21.0056ZM19.1114 23.2737H18.6639V22.3804H20.0179V23.2737H19.1114ZM17.2172 23.2737H16.7697V22.3804H18.1237V23.2737H17.2172ZM15.323 23.2737H14.8754V22.3804H16.2295V23.2737H15.323ZM18.6586 18.9267H15.705V21.6204H14.8099V18.4801C14.8099 18.2332 15.01 18.0334 15.2574 18.0334H18.2565C18.0808 17.5379 17.968 17.0137 17.9278 16.4685H12.7503V25.0549H26.2493V21.5899C25.5395 21.883 24.7616 22.0444 23.946 22.0444C22.2799 22.0444 20.7704 21.3701 19.6786 20.2805C19.2782 19.881 18.9339 19.4257 18.6586 18.9267ZM26.7067 16.4684H24.3946V20.7997C24.9943 20.4133 25.5048 19.8593 25.8937 19.1937C26.3527 18.4086 26.6402 17.4709 26.7067 16.4677V16.4684ZM22.1244 20.8196C21.7835 20.4741 21.4828 20.0772 21.2276 19.6411C20.6917 18.7251 20.3587 17.6312 20.2905 16.4683H18.8264C18.933 17.7071 19.4811 18.8192 20.3124 19.6489C20.822 20.1574 21.4382 20.5596 22.1244 20.8196ZM20.2905 15.5751C20.3587 14.4123 20.6926 13.3191 21.2276 12.4033C21.4828 11.9671 21.7835 11.5702 22.1253 11.2239C21.4382 11.4839 20.822 11.886 20.3124 12.3946C19.4811 13.2242 18.933 14.3373 18.8264 15.5751H20.2905ZM25.7694 11.224C26.1103 11.5703 26.411 11.9663 26.6663 12.4025C27.2012 13.3185 27.5352 14.4124 27.6033 15.5752H29.0675C28.9609 14.3365 28.4128 13.2243 27.5815 12.3947C27.0719 11.8861 26.4556 11.4839 25.7694 11.224ZM22.0002 19.1938C22.3891 19.8594 22.8996 20.4134 23.4993 20.7998V16.4685H21.1872C21.2537 17.4717 21.5421 18.4096 22.0002 19.1938ZM26.7064 15.5754C26.6399 14.5722 26.3515 13.6344 25.8934 12.8502C25.5045 12.1846 24.994 11.6306 24.3943 11.2442V15.5755L26.7064 15.5754ZM23.4992 11.2441C22.8996 11.6305 22.3891 12.1844 22.0001 12.85C21.5412 13.6343 21.2536 14.572 21.1872 15.5752H23.4992V11.2441ZM28.9222 19.4301V27.0317H29.5525C29.7998 27.0317 30 27.2315 30 27.4783V28.3202C30 29.0547 29.6984 29.7246 29.2115 30.2114L29.2089 30.214C28.722 30.6991 28.0507 31 27.3156 31H11.6853C10.9493 31 10.278 30.699 9.7902 30.2132L9.78758 30.2105C9.30156 29.7246 9 29.0547 9 28.321V27.4792C9 27.2324 9.20017 27.0326 9.44755 27.0326H10.0778V15.9764C10.0778 15.3632 10.3295 14.8057 10.7343 14.401C11.1416 13.9945 11.7002 13.7441 12.3147 13.7441H18.3575C18.6635 12.9974 19.1154 12.3257 19.6783 11.7639C20.7701 10.6743 22.2797 10 23.9457 10C25.6118 10 27.1213 10.6743 28.2131 11.7639C29.3049 12.8534 29.9806 14.36 29.9806 16.0226C29.9806 17.2875 29.5898 18.4626 28.9211 19.4318L28.9222 19.4301ZM18.0718 14.6356H12.3156C11.9459 14.6356 11.6102 14.7865 11.3672 15.029C11.1242 15.2715 10.9729 15.6074 10.9729 15.9755V27.0317H28.0271V20.4576C27.7553 20.7071 27.4598 20.9321 27.1442 21.1293V25.4997C27.1442 25.7466 26.9441 25.9463 26.6967 25.9463H12.3026C12.0552 25.9463 11.855 25.7466 11.855 25.4997V16.0199C11.855 15.7731 12.0552 15.5733 12.3026 15.5733H17.9276C17.9512 15.2523 18.0002 14.9391 18.0718 14.6347L18.0718 14.6356ZM16.89 27.925L16.6103 28.5696H22.3899L22.1102 27.925H16.89ZM23.0814 27.925L23.4616 28.8008C23.4966 28.8645 23.5167 28.9378 23.5167 29.0154C23.5167 29.2623 23.3165 29.4621 23.0692 29.4621H15.9303C15.8717 29.4603 15.8114 29.449 15.7537 29.4237C15.5282 29.3269 15.4241 29.0643 15.5212 28.8392L15.918 27.9241H9.89442V28.3193C9.89442 28.8113 10.0955 29.2579 10.4189 29.5807C10.7441 29.9052 11.1916 30.1058 11.6846 30.1058H27.3149C27.8079 30.1058 28.2555 29.9052 28.5789 29.5824C28.904 29.2579 29.1051 28.8113 29.1051 28.3193V27.9241H23.0815L23.0814 27.925Z"/>
</mask>
<path d="M29.0685 16.4684H27.6043C27.5361 17.6312 27.2031 18.7244 26.6673 19.6411C26.4129 20.0773 26.1113 20.4742 25.7704 20.8197C26.4496 20.5623 27.0685 20.1619 27.5825 19.649C28.4348 18.7984 28.9645 17.6757 29.0685 16.4684ZM21.0056 23.2737H20.5581V22.3804H21.9121V23.2737H21.0056ZM19.1114 23.2737H18.6639V22.3804H20.0179V23.2737H19.1114ZM17.2172 23.2737H16.7697V22.3804H18.1237V23.2737H17.2172ZM15.323 23.2737H14.8754V22.3804H16.2295V23.2737H15.323ZM18.6586 18.9267H15.705V21.6204H14.8099V18.4801C14.8099 18.2332 15.01 18.0334 15.2574 18.0334H18.2565C18.0808 17.5379 17.968 17.0137 17.9278 16.4685H12.7503V25.0549H26.2493V21.5899C25.5395 21.883 24.7616 22.0444 23.946 22.0444C22.2799 22.0444 20.7704 21.3701 19.6786 20.2805C19.2782 19.881 18.9339 19.4257 18.6586 18.9267ZM26.7067 16.4684H24.3946V20.7997C24.9943 20.4133 25.5048 19.8593 25.8937 19.1937C26.3527 18.4086 26.6402 17.4709 26.7067 16.4677V16.4684ZM22.1244 20.8196C21.7835 20.4741 21.4828 20.0772 21.2276 19.6411C20.6917 18.7251 20.3587 17.6312 20.2905 16.4683H18.8264C18.933 17.7071 19.4811 18.8192 20.3124 19.6489C20.822 20.1574 21.4382 20.5596 22.1244 20.8196ZM20.2905 15.5751C20.3587 14.4123 20.6926 13.3191 21.2276 12.4033C21.4828 11.9671 21.7835 11.5702 22.1253 11.2239C21.4382 11.4839 20.822 11.886 20.3124 12.3946C19.4811 13.2242 18.933 14.3373 18.8264 15.5751H20.2905ZM25.7694 11.224C26.1103 11.5703 26.411 11.9663 26.6663 12.4025C27.2012 13.3185 27.5352 14.4124 27.6033 15.5752H29.0675C28.9609 14.3365 28.4128 13.2243 27.5815 12.3947C27.0719 11.8861 26.4556 11.4839 25.7694 11.224ZM22.0002 19.1938C22.3891 19.8594 22.8996 20.4134 23.4993 20.7998V16.4685H21.1872C21.2537 17.4717 21.5421 18.4096 22.0002 19.1938ZM26.7064 15.5754C26.6399 14.5722 26.3515 13.6344 25.8934 12.8502C25.5045 12.1846 24.994 11.6306 24.3943 11.2442V15.5755L26.7064 15.5754ZM23.4992 11.2441C22.8996 11.6305 22.3891 12.1844 22.0001 12.85C21.5412 13.6343 21.2536 14.572 21.1872 15.5752H23.4992V11.2441ZM28.9222 19.4301V27.0317H29.5525C29.7998 27.0317 30 27.2315 30 27.4783V28.3202C30 29.0547 29.6984 29.7246 29.2115 30.2114L29.2089 30.214C28.722 30.6991 28.0507 31 27.3156 31H11.6853C10.9493 31 10.278 30.699 9.7902 30.2132L9.78758 30.2105C9.30156 29.7246 9 29.0547 9 28.321V27.4792C9 27.2324 9.20017 27.0326 9.44755 27.0326H10.0778V15.9764C10.0778 15.3632 10.3295 14.8057 10.7343 14.401C11.1416 13.9945 11.7002 13.7441 12.3147 13.7441H18.3575C18.6635 12.9974 19.1154 12.3257 19.6783 11.7639C20.7701 10.6743 22.2797 10 23.9457 10C25.6118 10 27.1213 10.6743 28.2131 11.7639C29.3049 12.8534 29.9806 14.36 29.9806 16.0226C29.9806 17.2875 29.5898 18.4626 28.9211 19.4318L28.9222 19.4301ZM18.0718 14.6356H12.3156C11.9459 14.6356 11.6102 14.7865 11.3672 15.029C11.1242 15.2715 10.9729 15.6074 10.9729 15.9755V27.0317H28.0271V20.4576C27.7553 20.7071 27.4598 20.9321 27.1442 21.1293V25.4997C27.1442 25.7466 26.9441 25.9463 26.6967 25.9463H12.3026C12.0552 25.9463 11.855 25.7466 11.855 25.4997V16.0199C11.855 15.7731 12.0552 15.5733 12.3026 15.5733H17.9276C17.9512 15.2523 18.0002 14.9391 18.0718 14.6347L18.0718 14.6356ZM16.89 27.925L16.6103 28.5696H22.3899L22.1102 27.925H16.89ZM23.0814 27.925L23.4616 28.8008C23.4966 28.8645 23.5167 28.9378 23.5167 29.0154C23.5167 29.2623 23.3165 29.4621 23.0692 29.4621H15.9303C15.8717 29.4603 15.8114 29.449 15.7537 29.4237C15.5282 29.3269 15.4241 29.0643 15.5212 28.8392L15.918 27.9241H9.89442V28.3193C9.89442 28.8113 10.0955 29.2579 10.4189 29.5807C10.7441 29.9052 11.1916 30.1058 11.6846 30.1058H27.3149C27.8079 30.1058 28.2555 29.9052 28.5789 29.5824C28.904 29.2579 29.1051 28.8113 29.1051 28.3193V27.9241H23.0815L23.0814 27.925Z" fill="white" stroke="white" stroke-width="2" mask="url(#path-2-inside-1_2489_10501)"/>
<defs>
<linearGradient id="paint0_linear_2489_10501" x1="38.3071" y1="19.3657" x2="0.0505809" y2="19.4216" gradientUnits="userSpaceOnUse">
<stop stop-color="#0D659B"/>
<stop offset="1" stop-color="#1C99AA"/>
</linearGradient>
</defs>
</svg>
