<svg width="16" height="16" viewBox="0 0 16 16" fill="none" xmlns="http://www.w3.org/2000/svg">
<path d="M10.4844 2.66667C8.29718 0.495575 4.8737 0.495575 2.68648 2.66667C0.499257 4.83776 0.499257 8.23599 2.68648 10.4071C4.8737 12.5782 8.29718 12.5782 10.4844 10.4071C12.6716 8.33038 12.6716 4.83776 10.4844 2.66667ZM11.7207 10.7847L10.8648 11.6342L13.9079 14.6549C14.1932 14.9381 14.5736 14.9381 14.7637 14.6549C15.049 14.3717 15.049 13.9941 14.7637 13.8053L11.7207 10.7847ZM1.92571 1.9115C4.49331 -0.637168 8.67756 -0.637168 11.2452 1.9115C13.4324 4.0826 13.7177 7.29204 12.2912 9.84071L15.5245 13.0501C15.8098 13.3333 16 13.8053 16 14.2773C16 15.0324 15.5245 15.41 15.5245 15.5044C14.8588 16.1652 13.8128 16.1652 13.1471 15.5044L9.91382 12.295C7.34621 13.7109 4.11293 13.4277 1.92571 11.2566C-0.641902 8.61357 -0.641902 4.46018 1.92571 1.9115Z" fill="white"/>
</svg>
