<svg width="25" height="25" viewBox="0 0 25 25" fill="none" xmlns="http://www.w3.org/2000/svg">
<g clip-path="url(#clip0_534_181)">
<path d="M8.75713 9.43179C8.47013 9.14479 8.05113 9.03179 7.65913 9.13679C7.26713 9.24279 6.96013 9.54879 6.85513 9.94079C6.75013 10.3328 6.86213 10.7518 7.14913 11.0388L11.6941 15.5838C11.9071 15.7968 12.1961 15.9168 12.4981 15.9168C12.8001 15.9168 13.0881 15.7968 13.3011 15.5838L24.6651 4.22179C24.8791 4.00779 24.9991 3.71879 24.9991 3.41679C24.9991 3.11579 24.8791 2.82579 24.6651 2.61279C24.4521 2.39979 24.1631 2.27979 23.8611 2.27979C23.5591 2.27979 23.2701 2.39979 23.0571 2.61279L12.4991 13.1728L8.75713 9.43179Z" fill="#0D659B"/>
<path d="M24.7495 10.0032C24.6685 9.60521 24.3815 9.28121 23.9965 9.15221C23.6105 9.02421 23.1865 9.11021 22.8825 9.38021C22.5785 9.64921 22.4425 10.0602 22.5235 10.4582C22.9915 12.7442 22.6635 15.1222 21.5935 17.1962C20.5235 19.2702 18.7775 20.9172 16.6435 21.8612C14.5095 22.8062 12.1175 22.9922 9.8625 22.3892C7.6085 21.7862 5.6275 20.4302 4.25049 18.5472C2.87249 16.6632 2.18049 14.3642 2.28949 12.0332C2.39849 9.70221 3.30049 7.47821 4.8475 5.73121C6.3945 3.98321 8.4925 2.81721 10.7925 2.42721C13.0925 2.03621 15.4585 2.44421 17.4955 3.58321C17.8505 3.78221 18.2845 3.77621 18.6355 3.56821C18.9855 3.36021 19.1985 2.98121 19.1925 2.57321C19.1875 2.16621 18.9645 1.79321 18.6095 1.59421C16.2155 0.25321 13.4465 -0.26279 10.7315 0.12621C8.01449 0.51521 5.50149 1.78721 3.57949 3.74621C1.65849 5.70521 0.434494 8.24221 0.0984943 10.9662C-0.238506 13.6902 0.330494 16.4492 1.71749 18.8162C3.10449 21.1842 5.23149 23.0302 7.7715 24.0692C10.3115 25.1082 13.1215 25.2822 15.7715 24.5642C18.4195 23.8462 20.7585 22.2772 22.4275 20.0982C24.0955 17.9192 25.0005 15.2522 25.0025 12.5082C24.9995 11.6672 24.9165 10.8282 24.7495 10.0032Z" fill="#0D659B"/>
</g>
<defs>
<clipPath id="clip0_534_181">
<rect width="25" height="25" fill="white"/>
</clipPath>
</defs>
</svg>
