<svg width="363" height="110" viewBox="0 0 363 110" fill="none" xmlns="http://www.w3.org/2000/svg">
<g clip-path="url(#clip0_65_422)">
<path d="M150.462 78.5022C148.159 78.5022 145.976 78.6233 145.976 78.6233V77.7753C146.461 77.7753 147.31 77.533 147.916 76.8062C148.522 76.0793 148.522 74.7467 148.522 73.8987C148.522 73.6564 147.916 55.7269 147.916 55.7269C147.916 55.7269 147.674 56.696 147.189 57.9075L139.429 78.7445H137.368L129.73 57.9075C129.245 56.696 129.002 55.848 129.002 55.7269C129.002 55.848 128.396 73.0507 128.396 73.8987C128.396 74.7467 128.396 75.9581 128.76 76.685C128.881 76.8062 129.366 77.6542 130.821 77.7753V78.6233C130.821 78.6233 129.002 78.5022 126.941 78.5022C124.88 78.5022 123.183 78.6233 123.183 78.6233V77.7753C123.668 77.7753 124.516 77.533 125.122 76.9273C125.729 76.2004 125.85 74.989 125.971 71.7181L126.577 58.5132C126.577 57.9075 126.699 55.9692 126.699 55.4846C126.699 54.3943 126.577 53.9097 126.335 53.5463C126.092 53.1828 125.486 52.5771 124.274 52.4559V51.6079C124.274 51.6079 126.214 51.7291 128.275 51.7291C130.215 51.7291 131.548 51.6079 131.548 51.6079L138.823 71.4758C139.187 72.4449 139.429 73.4141 139.429 73.4141C139.429 73.4141 139.793 72.3238 140.035 71.4758L147.431 51.6079C147.431 51.6079 148.765 51.7291 150.462 51.7291C153.008 51.7291 154.342 51.6079 154.342 51.6079V52.4559C153.614 52.5771 152.887 52.6982 152.402 53.304C151.917 53.9097 151.796 54.5154 151.796 55.7269C151.796 56.3326 151.796 57.4229 151.917 58.2709L152.523 72.3238C152.645 74.8678 152.645 75.9581 153.13 76.685C153.251 76.8062 153.736 77.6542 155.069 77.7753V78.6233C154.948 78.6233 152.887 78.5022 150.462 78.5022Z" fill="#04659A"/>
<path d="M173.134 77.6542V78.5022H163.92C161.131 78.5022 158.464 78.6234 158.464 78.6234V77.7753C158.949 77.7753 159.798 77.533 160.283 77.0485C160.889 76.4427 160.889 75.5947 160.889 72.6872V62.1476C160.889 59.8458 160.767 59.2401 160.283 58.7555C159.919 58.3921 159.191 58.1498 158.585 58.0286V57.1806C158.585 57.1806 160.646 57.3018 162.586 57.3018H173.013V58.2709C173.013 60.3304 173.134 61.4207 173.134 61.4207H172.164C172.164 60.3304 171.801 58.8767 168.406 58.8767H164.768V66.7511H167.921C170.952 66.7511 171.073 65.4185 171.073 64.4493H172.043C172.043 64.4493 171.922 65.6608 171.922 67.478C171.922 69.4163 172.043 70.5066 172.043 70.5066H171.073C171.073 69.5374 170.952 68.2048 167.921 68.2048H164.768V75.3524C164.768 76.9273 165.132 76.9273 167.557 76.9273H168.527C171.679 76.9273 172.164 75.4736 172.164 74.0198H173.255C173.255 74.141 173.134 75.5947 173.134 77.6542Z" fill="#04659A"/>
<path d="M186.834 58.7555C185.258 58.7555 184.409 58.8766 184.167 58.8766V75.3524C184.167 77.0485 185.137 77.0484 186.955 77.0484C192.533 77.0484 194.594 73.7775 194.594 67.7203C194.594 60.2092 190.593 58.7555 186.834 58.7555ZM191.441 78.1388C190.108 78.5022 187.925 78.6233 185.864 78.6233C184.046 78.6233 182.833 78.5022 181.257 78.5022C179.681 78.5022 177.862 78.6233 177.862 78.6233V77.7753C178.347 77.7753 179.196 77.533 179.681 77.0484C180.287 76.4427 180.287 75.5947 180.287 72.6872V62.1476C180.287 59.8458 180.166 59.2401 179.681 58.7555C179.317 58.3921 178.59 58.1498 177.984 58.0286V57.1806C177.984 57.1806 179.438 57.3018 181.378 57.3018C182.833 57.3018 184.652 57.1806 186.471 57.1806C189.987 57.1806 198.837 57.4229 198.837 67.3568C198.959 73.8987 195.564 76.9273 191.441 78.1388Z" fill="#04659A"/>
<path d="M206.84 76.685H215.691C217.388 76.685 218.358 76.5639 219.085 75.837C220.055 74.8678 220.177 73.0507 220.177 73.0507H221.268C221.268 73.0507 221.147 74.7467 221.147 77.7753V78.6234H201.99V77.2907L216.539 53.6674H208.78C207.325 53.6674 206.112 53.6674 205.264 54.3943C204.173 55.3634 204.173 56.8172 204.173 56.9383H203.203C203.203 56.9383 203.324 55 203.324 53.4251V51.8502H221.268V53.0617L206.84 76.685Z" fill="#04659A"/>
<path d="M239.332 77.6542V78.5022H230.118C227.329 78.5022 224.662 78.6234 224.662 78.6234V77.7753C225.147 77.7753 225.996 77.533 226.481 77.0485C227.087 76.4427 227.087 75.5947 227.087 72.6872V62.1476C227.087 59.8458 226.966 59.2401 226.481 58.7555C226.117 58.3921 225.39 58.1498 224.783 58.0286V57.1806C224.783 57.1806 226.844 57.3018 228.784 57.3018H239.211V58.2709C239.211 60.3304 239.332 61.4207 239.332 61.4207H238.363C238.363 60.3304 237.999 58.8767 234.604 58.8767H230.967V66.7511H234.119C237.15 66.7511 237.271 65.4185 237.271 64.4493H238.241C238.241 64.4493 238.12 65.6608 238.12 67.478C238.12 69.4163 238.241 70.5066 238.241 70.5066H237.271C237.271 69.5374 237.15 68.2048 234.119 68.2048H230.967V75.3524C230.967 76.9273 231.33 76.9273 233.755 76.9273H234.725C237.878 76.9273 238.363 75.4736 238.363 74.0198H239.454C239.454 74.141 239.332 75.5947 239.332 77.6542Z" fill="#04659A"/>
<path d="M264.551 58.8767C263.945 59.4824 263.945 60.3304 263.945 63.2379V78.7445H261.278L249.517 62.6322C248.911 61.9053 248.669 61.2996 248.669 61.1784V73.6564C248.669 75.9581 248.79 76.5639 249.275 77.0485C249.639 77.4119 250.366 77.6542 250.851 77.7753V78.6234C250.851 78.6234 249.275 78.5022 247.456 78.5022C245.516 78.5022 244.062 78.6234 244.062 78.6234V77.7753C244.546 77.7753 245.274 77.533 245.759 77.0485C246.365 76.4427 246.365 75.5947 246.365 72.6872V62.1476C246.365 59.8458 246.244 59.2401 245.759 58.7555C245.395 58.3921 244.668 58.1498 244.183 58.0286V57.1806C244.183 57.1806 245.88 57.3018 247.82 57.3018C249.396 57.3018 250.366 57.1806 250.366 57.1806L260.55 70.87C261.399 71.9604 261.642 72.5661 261.642 72.6872V62.1476C261.642 59.8458 261.52 59.2401 261.035 58.7555C260.672 58.3921 259.944 58.1498 259.459 58.0286V57.1806C259.459 57.1806 261.157 57.3018 262.975 57.3018C265.158 57.3018 266.249 57.1806 266.249 57.1806V58.0286C265.764 58.0286 265.036 58.2709 264.551 58.8767Z" fill="#04659A"/>
<path d="M285.526 61.5418C285.526 60.3304 285.284 58.8767 281.889 58.8767H279.586V73.6564C279.586 76.0793 279.707 76.685 280.313 77.1696C280.798 77.6542 281.768 77.7753 282.495 77.8965V78.7445C282.495 78.7445 279.828 78.6234 277.646 78.6234C275.1 78.6234 272.796 78.7445 272.796 78.7445V77.8965C273.402 77.8965 274.493 77.7753 274.978 77.1696C275.585 76.4427 275.706 75.3524 275.706 72.8084V58.7555H273.523C270.007 58.7555 269.886 60.2093 269.765 61.4207H268.795C268.795 61.4207 268.916 60.2093 268.916 58.1498V57.1806H286.375V58.1498C286.375 60.2093 286.496 61.4207 286.496 61.4207H285.526V61.5418Z" fill="#04659A"/>
<path d="M297.166 58.6344C296.317 58.6344 295.59 58.7555 295.59 58.7555V68.0837C295.59 68.0837 296.317 68.2048 297.529 68.2048C297.893 68.2048 298.378 68.2048 298.621 68.0837C299.954 67.8414 301.652 66.8722 301.652 63.2379C301.773 58.8767 298.984 58.6344 297.166 58.6344ZM307.229 78.7445C304.562 78.7445 303.834 77.8965 302.258 76.0793C301.046 74.5044 297.772 70.1432 297.287 69.5374H295.711V73.6564C295.711 75.9581 295.832 76.5639 296.317 77.0485C296.681 77.4119 297.287 77.6542 297.893 77.7753V78.6234C297.893 78.6234 295.711 78.5022 293.771 78.5022C291.952 78.5022 289.406 78.6234 289.406 78.6234V77.7753C289.891 77.7753 290.619 77.533 291.104 77.0485C291.71 76.4427 291.71 75.5947 291.71 72.6872V62.1476C291.71 59.8458 291.589 59.2401 291.104 58.7555C290.74 58.3921 290.012 58.1498 289.406 58.0286V57.1806C289.406 57.1806 291.225 57.3018 292.68 57.3018C294.62 57.3018 295.832 57.1806 297.045 57.1806C304.198 57.1806 306.016 59.4824 306.016 62.7533C306.016 66.2665 302.379 68.2048 301.046 68.5683C301.046 68.5683 304.44 72.6872 306.38 74.989C307.835 76.5639 308.926 77.6542 310.502 77.7753V78.6234C310.502 78.5022 309.411 78.7445 307.229 78.7445Z" fill="#04659A"/>
<path d="M331.113 58.8767C330.507 59.4824 330.507 60.3304 330.507 63.2379V69.5374C330.507 71.8392 330.386 73.5352 329.901 74.7467C328.688 77.8965 325.657 78.8656 321.535 78.8656C316.079 78.8656 314.139 76.9273 313.412 74.7467C312.927 73.4141 312.927 71.9604 312.927 69.9009V62.1476C312.927 59.8458 312.805 59.2401 312.199 58.7555C311.835 58.3921 311.108 58.1498 310.623 58.0286V57.1806C310.623 57.1806 312.805 57.3018 314.867 57.3018C316.928 57.3018 319.231 57.1806 319.231 57.1806V58.0286C318.746 58.0286 318.019 58.2709 317.534 58.7555C316.928 59.3612 316.806 60.2092 316.806 63.1167V70.6278C316.806 74.2621 317.17 77.1696 322.262 77.1696C327.476 77.1696 327.718 74.0198 327.718 70.5066V62.1476C327.718 59.8458 327.597 59.2401 326.991 58.7555C326.627 58.3921 325.9 58.1498 325.415 58.0286V57.1806C325.415 57.1806 327.354 57.3018 329.052 57.3018C331.234 57.3018 332.932 57.1806 332.932 57.1806V58.0286C332.325 58.0286 331.598 58.2709 331.113 58.8767Z" fill="#04659A"/>
<path d="M358.878 78.5022C356.817 78.5022 354.756 78.6233 354.756 78.6233V77.7753C355.12 77.7753 355.968 77.6542 356.453 77.0485C356.938 76.5639 356.938 75.5947 356.938 74.7467C356.938 74.5044 356.332 60.2092 356.332 60.2092C356.332 60.2092 356.211 61.0573 355.726 62.1476L349.421 78.6233H347.481L341.298 62.1476C340.813 60.9361 340.692 60.2092 340.692 60.2092C340.692 60.3304 340.207 74.2621 340.207 74.6255C340.207 75.4736 340.207 76.3216 340.571 76.8062C340.813 77.0485 341.298 77.533 342.268 77.6542V78.5022C342.268 78.5022 340.692 78.3811 338.873 78.3811C337.055 78.3811 335.6 78.5022 335.6 78.5022V77.6542C335.963 77.6542 336.812 77.533 337.297 76.9273C337.903 76.3216 337.903 75.4736 338.024 72.8084L338.631 62.511C338.631 62.0264 338.631 60.6938 338.631 60.3304C338.631 59.6035 338.631 59.1189 338.388 58.7555C338.267 58.5132 337.661 58.0286 336.57 57.9075V57.0595C336.57 57.0595 338.388 57.1806 340.328 57.1806C342.025 57.1806 343.359 57.0595 343.359 57.0595L348.936 71.2335C349.3 72.2026 349.421 73.1718 349.421 73.1718C349.421 73.0507 349.664 72.0815 350.027 71.2335L355.726 56.9383C355.726 56.9383 357.181 57.0595 358.757 57.0595C360.939 57.0595 362.394 56.9383 362.394 56.9383V57.7863C361.788 57.7863 361.182 57.9075 360.818 58.5132C360.454 58.9978 360.333 59.4824 360.333 60.4515C360.333 60.9361 360.333 61.7841 360.454 62.3899L360.939 73.2929C361.061 75.4736 361.061 76.2004 361.424 76.685C361.546 76.8062 361.909 77.4119 363.122 77.533V78.3811C363 78.6233 361.061 78.5022 358.878 78.5022Z" fill="#04659A"/>
<path d="M28.4919 28.4692C28.2494 29.8018 28.1282 31.1344 28.1282 32.467C28.0069 34.8899 28.0069 37.3128 28.3707 39.8568C28.6131 42.1586 29.0981 44.4604 29.7043 47.1256C29.9468 48.2159 30.3105 49.3062 30.7955 50.6388C31.1592 51.6079 31.6442 52.8194 32.1292 54.0308C33.8266 58.1498 36.2514 62.2687 39.6462 66.8722C42.4348 70.6278 45.7083 74.3833 49.8306 78.1388C50.0731 78.3811 50.3156 78.6233 50.6793 78.8656H73.8366V51.6079H50.3156V28.4692H28.4919Z" fill="#009E4B"/>
<path d="M16.489 51.6079H0V78.7445H23.2786V102.004H50.3156V98.37C20.1263 74.3833 16.489 51.6079 16.489 51.6079Z" fill="#009E4B"/>
<path d="M113.726 47.2467L113.604 42.0374V41.7952C113.362 40.3414 113.241 38.8877 112.877 37.4339C112.634 35.9802 112.149 34.6476 111.664 33.1938C111.179 31.8612 110.573 30.4075 109.846 29.196C109.482 28.5903 109.118 27.8634 108.755 27.2577C108.391 26.652 108.027 26.0463 107.542 25.4405C106.693 24.2291 105.724 23.1388 104.632 22.0485C103.541 20.9582 102.45 20.1101 101.238 19.2621C100.025 18.4141 98.6915 17.6872 97.3578 17.0815C95.9029 16.4758 94.5692 15.9912 92.9931 15.7489C92.6294 15.6278 92.2656 15.6278 91.9019 15.5066L90.932 15.3855H90.447H90.2045H90.0833H89.8408H88.7496C87.4159 15.3855 85.961 15.3855 84.5061 15.6278C83.0512 15.7489 81.7175 16.1123 80.2626 16.4758C79.7777 16.5969 79.2927 16.8392 78.8077 17.0815C77.959 17.4449 77.1103 17.8084 76.3829 18.293C73.958 19.7467 71.8969 21.685 70.0783 23.7445C68.3809 25.804 66.8047 27.9846 65.2286 30.1652C67.1684 28.2269 68.9871 26.2885 70.927 24.5925C71.1694 24.3502 71.4119 24.2291 71.6544 23.9868C72.3819 23.3811 73.1093 22.7753 73.958 22.2907C75.0492 21.5639 76.1404 20.9582 77.3528 20.4736C78.444 19.989 79.6564 19.6256 80.8688 19.3833C82.0813 19.141 83.2937 19.0198 84.5061 19.141C85.7185 19.141 87.0522 19.2621 88.2646 19.3833L89.2346 19.5044H89.4771H89.5983C89.7196 19.5044 89.4771 19.5044 89.4771 19.5044H89.5983L90.0833 19.6256L91.0532 19.8678C91.2957 19.989 91.5382 19.989 91.9019 20.1101C92.8719 20.4736 94.0843 20.9581 95.0542 21.5639C95.6604 21.9273 96.1454 22.1696 96.6304 22.533C97.1153 22.8965 97.4791 23.1388 97.964 23.5022C98.8127 24.2291 99.6614 25.0771 100.51 25.9251C101.238 26.7731 101.965 27.7423 102.571 28.8326C102.935 29.3172 103.177 29.8018 103.42 30.4075C103.662 30.8921 103.905 31.4978 104.147 31.9824C104.632 33.0727 104.996 34.163 105.36 35.3745C105.602 36.5859 105.966 37.6762 106.087 38.8877C106.33 39.978 106.33 41.1894 106.451 42.2797L106.33 47.1256C106.087 48.4582 105.966 49.9119 105.602 51.2445C105.481 51.9714 105.239 52.5771 104.996 53.304C104.754 53.9097 104.632 54.6366 104.39 55.2423C103.905 56.5749 103.42 57.9075 102.692 59.1189C102.086 60.4515 101.359 61.663 100.631 62.8745C99.9039 64.0859 99.0552 65.2974 98.3278 66.5088C97.4791 67.7203 96.6304 68.8106 95.7817 70.022L92.9931 73.4141L89.962 76.685L86.8097 79.8348C85.7185 80.9251 84.6274 81.8943 83.5362 82.9846C82.445 84.0749 81.3538 85.0441 80.1414 86.0132C79.0502 86.9824 77.8378 87.9515 76.7466 88.9207L73.2306 91.8282L69.5933 94.6145C68.1384 95.7048 66.6835 96.7952 65.2286 97.8855C61.8338 95.3414 58.5602 92.6762 55.2867 90.1322C53.5893 88.7996 52.0131 87.467 50.437 86.0132C48.0121 83.9538 45.5873 81.8943 43.2837 79.7137C39.5252 76.0793 35.8879 72.2026 32.8568 68.0837C29.8258 63.9648 27.1584 59.4824 25.0973 54.7577C24.6123 53.5463 24.1274 52.3348 23.7636 51.2445C23.6424 50.7599 23.5212 50.3965 23.3999 50.033C23.1574 49.185 22.9149 48.337 22.6725 47.489C22.0662 45.0661 21.5813 42.522 21.2175 39.978C20.9751 37.4339 20.8538 34.8899 20.9751 32.2247C21.0963 29.6806 21.46 27.1366 22.0662 24.5925C23.1574 19.5044 25.3398 14.6586 28.4921 10.4185C31.6444 6.17841 35.7666 2.54405 40.6163 0C39.4039 0.363436 38.0703 0.848018 36.8578 1.45374C32.9781 3.14978 29.462 5.69383 26.5522 8.84361C22.5512 12.8414 19.6414 18.0507 17.7015 23.3811C16.7316 26.0463 16.1254 28.9537 15.6404 31.7401C15.2767 34.6476 15.0342 37.4339 15.0342 40.3414C15.0342 43.2489 15.3979 46.1564 15.8829 48.9427C16.0041 49.7908 16.2466 50.7599 16.4891 51.6079C16.4891 51.6079 20.2476 74.2621 50.437 98.2489C54.3167 101.52 58.3177 104.548 62.1975 107.577L65.1073 109.879L65.7135 109.394L67.8959 107.819C70.442 106.002 72.9881 104.185 75.5342 102.126L79.2927 99.2181L82.93 96.1894C84.1424 95.2203 85.3548 94.13 86.5672 93.0397C87.7797 91.9493 88.9921 90.9802 90.0833 89.7687C91.1745 88.6784 92.3869 87.5881 93.4781 86.3767L96.7516 82.8634L99.9039 79.1079L102.814 75.2313C103.784 73.8987 104.632 72.5661 105.602 71.1123C106.451 69.6586 107.3 68.326 108.027 66.8723C108.755 65.4185 109.603 63.9648 110.21 62.3899C110.937 60.815 111.422 59.2401 112.028 57.6652C112.271 56.8172 112.513 55.9692 112.634 55.2423C112.877 54.3943 112.998 53.5463 113.119 52.6982C113.483 51.0022 113.604 49.3062 113.726 47.6101V47.2467Z" fill="#04659A"/>
</g>
<defs>
<clipPath id="clip0_65_422">
<rect width="363" height="110" fill="white"/>
</clipPath>
</defs>
</svg>
